Preview_144,100-wdth_495.00.ufo
<glyph name="numbersign" format="2">
  <advance width="1000"/>
  <unicode hex="0023"/>
  <outline>
    <contour>
      <point x="4.425" y="493.675" type="line"/>
      <point x="4.425" y="569.15" type="line"/>
      <point x="936.118064516129" y="569.15" type="line"/>
      <point x="936.118064516129" y="493.675" type="line"/>
    </contour>
    <contour>
      <point x="63.83" y="915.85" type="line"/>
      <point x="63.83" y="991.325" type="line"/>
      <point x="994.523064516129" y="991.325" type="line"/>
      <point x="994.523064516129" y="915.85" type="line"/>
    </contour>
    <contour>
      <point x="181.66375" y="-69.92425" type="line"/>
      <point x="360.856" y="1530.07575" type="line"/>
      <point x="385.159" y="1530.92425" type="line"/>
      <point x="204.91625" y="-69.07575" type="line"/>
    </contour>
    <contour>
      <point x="619.1765725806451" y="-69.92425" type="line"/>
      <point x="799.6465725806452" y="1530.07575" type="line"/>
      <point x="822.8990725806452" y="1530.92425" type="line"/>
      <point x="642.4290725806452" y="-69.07575" type="line"/>
    </contour>
  </outline>
</glyph>
<glyph name="percent" format="2">
  <advance width="1534"/>
  <unicode hex="0025"/>
  <outline>
    <contour>
      <point x="55.375" y="1108.05" type="qcurve"/>
      <point x="55.375" y="1287.96"/>
      <point x="239.12" y="1525.95"/>
      <point x="371.095" y="1525.95" type="qcurve" smooth="yes"/>
      <point x="513.565" y="1525.95"/>
      <point x="688.815" y="1291.97"/>
      <point x="688.815" y="1115.0" type="qcurve" smooth="yes"/>
      <point x="688.815" y="933.99"/>
      <point x="511.1" y="682.0"/>
      <point x="369.125" y="682.0" type="qcurve" smooth="yes"/>
      <point x="225.66500000000002" y="682.0"/>
      <point x="55.375" y="932.685"/>
    </contour>
    <contour>
      <point x="115.82" y="1110.07" type="qcurve" smooth="yes"/>
      <point x="117.315" y="939.505"/>
      <point x="239.20999999999998" y="690.98"/>
      <point x="371.095" y="690.98" type="qcurve" smooth="yes"/>
      <point x="498.03" y="690.98"/>
      <point x="628.36" y="939.365"/>
      <point x="628.36" y="1114.02" type="qcurve" smooth="yes"/>
      <point x="628.36" y="1292.21"/>
      <point x="501.01" y="1515.465"/>
      <point x="371.59000000000003" y="1515.465" type="qcurve" smooth="yes"/>
      <point x="245.14" y="1515.465"/>
      <point x="114.325" y="1280.13"/>
    </contour>
    <contour>
      <point x="310.46500000000003" y="-14.02" type="line"/>
      <point x="1180.245" y="1520.1" type="line"/>
      <point x="1194.71" y="1509.665" type="line"/>
      <point x="323.445" y="-23.97" type="line"/>
    </contour>
    <contour>
      <point x="845.605" y="418.11" type="qcurve" smooth="yes"/>
      <point x="845.605" y="595.535"/>
      <point x="1029.35" y="830.455"/>
      <point x="1161.325" y="830.455" type="qcurve" smooth="yes"/>
      <point x="1304.3" y="830.455"/>
      <point x="1479.045" y="604.495"/>
      <point x="1479.045" y="425.06" type="qcurve" smooth="yes"/>
      <point x="1479.045" y="230.98"/>
      <point x="1301.33" y="-13.495"/>
      <point x="1159.355" y="-13.495" type="qcurve" smooth="yes"/>
      <point x="1016.4" y="-13.495"/>
      <point x="845.605" y="234.625"/>
    </contour>
    <contour>
      <point x="906.5550000000001" y="419.12" type="qcurve" smooth="yes"/>
      <point x="908.05" y="237.485"/>
      <point x="1030.45" y="-5.02"/>
      <point x="1161.325" y="-5.02" type="qcurve" smooth="yes"/>
      <point x="1288.7649999999999" y="-5.02"/>
      <point x="1418.5900000000001" y="235.86"/>
      <point x="1418.5900000000001" y="423.575" type="qcurve" smooth="yes"/>
      <point x="1418.5900000000001" y="605.735"/>
      <point x="1291.24" y="820.475"/>
      <point x="1161.82" y="820.475" type="qcurve" smooth="yes"/>
      <point x="1035.875" y="820.475"/>
      <point x="905.06" y="591.16"/>
    </contour>
  </outline>
</glyph>
<glyph name="quotesingle" format="2">
  <advance width="322"/>
  <unicode hex="0027"/>
  <outline>
    <contour>
      <point x="151.67000000000002" y="964.0" type="line"/>
      <point x="126.68" y="1467.1" type="line"/>
      <point x="125.68" y="1520.1"/>
      <point x="138.69" y="1558.0"/>
      <point x="160.66" y="1558.0" type="qcurve" smooth="yes"/>
      <point x="182.125" y="1558.0"/>
      <point x="196.135" y="1520.1"/>
      <point x="195.135" y="1467.1" type="qcurve"/>
      <point x="166.66" y="964.0" type="line"/>
    </contour>
  </outline>
</glyph>
<glyph name="asterisk" format="2">
  <advance width="664"/>
  <unicode hex="002A"/>
  <outline>
    <contour>
      <point x="332.155" y="874.62" type="qcurve" smooth="yes"/>
      <point x="322.61" y="874.62"/>
      <point x="307.67" y="875.76"/>
      <point x="311.175" y="952.57" type="qcurve" smooth="yes"/>
      <point x="325.4175" y="1176.48625" type="line"/>
      <point x="322.569" y="1179.1075" type="line"/>
      <point x="141.84" y="1057.48" type="line" smooth="yes"/>
      <point x="62.95" y="1003.065"/>
      <point x="47.95" y="1015.975"/>
      <point x="43.93" y="1022.51" type="qcurve" smooth="yes"/>
      <point x="38.9" y="1030.55"/>
      <point x="38.0" y="1055.015"/>
      <point x="121.375" y="1097.43" type="qcurve" smooth="yes"/>
      <point x="314.9325" y="1189.4915" type="line"/>
      <point x="315.21025000000003" y="1192.01175" type="line"/>
      <point x="121.88" y="1286.26" type="line" smooth="yes"/>
      <point x="37.495" y="1328.2"/>
      <point x="39.435" y="1348.13"/>
      <point x="42.445" y="1354.665" type="qcurve" smooth="yes"/>
      <point x="45.455" y="1361.2"/>
      <point x="62.95" y="1380.12"/>
      <point x="142.85" y="1324.695" type="qcurve" smooth="yes"/>
      <point x="322.39225" y="1203.0575" type="line"/>
      <point x="324.468" y="1206.18375" type="line"/>
      <point x="311.175" y="1430.1" type="line" smooth="yes"/>
      <point x="307.67" y="1505.515"/>
      <point x="321.62" y="1520.0"/>
      <point x="332.155" y="1520.0" type="qcurve" smooth="yes"/>
      <point x="341.68" y="1520.0"/>
      <point x="357.155" y="1508.96"/>
      <point x="355.135" y="1430.1" type="qcurve" smooth="yes"/>
      <point x="340.8925" y="1206.18375" type="line"/>
      <point x="343.46325" y="1203.0575" type="line"/>
      <point x="518.965" y="1324.695" type="line" smooth="yes"/>
      <point x="595.815" y="1378.1"/>
      <point x="616.34" y="1363.21"/>
      <point x="619.865" y="1357.17" type="qcurve" smooth="yes"/>
      <point x="624.39" y="1348.625"/>
      <point x="619.745" y="1325.17"/>
      <point x="543.915" y="1286.26" type="qcurve" smooth="yes"/>
      <point x="350.8725" y="1192.1785" type="line"/>
      <point x="350.09975" y="1188.65825" type="line"/>
      <point x="544.925" y="1097.43" type="line" smooth="yes"/>
      <point x="627.29" y="1058.995"/>
      <point x="619.885" y="1034.54"/>
      <point x="615.865" y="1026.005" type="qcurve" smooth="yes"/>
      <point x="612.845" y="1019.965"/>
      <point x="594.845" y="1007.085"/>
      <point x="519.47" y="1058.49" type="qcurve" smooth="yes"/>
      <point x="343.41275" y="1179.1075" type="line"/>
      <point x="340.7915" y="1176.48625" type="line"/>
      <point x="355.135" y="952.57" type="line" smooth="yes"/>
      <point x="358.64" y="875.76"/>
      <point x="340.205" y="874.62"/>
    </contour>
  </outline>
</glyph>
<glyph name="hyphen" format="2">
  <advance width="867"/>
  <unicode hex="002D"/>
  <outline>
    <contour>
      <point x="90.84" y="606.0" type="line"/>
      <point x="90.84" y="655.0" type="line"/>
      <point x="433.8740322580645" y="653.515" type="line"/>
      <point x="777.1316129032259" y="655.0" type="line"/>
      <point x="777.1316129032259" y="606.0" type="line"/>
      <point x="433.8740322580645" y="607.485" type="line"/>
    </contour>
  </outline>
</glyph>
<glyph name="period" format="2">
  <advance width="407"/>
  <unicode hex="002E"/>
  <outline>
    <contour>
      <point x="142.215" y="54.505" type="qcurve" smooth="yes"/>
      <point x="142.215" y="77.99"/>
      <point x="176.20499999999998" y="111.98"/>
      <point x="202.69" y="111.98" type="qcurve" smooth="yes"/>
      <point x="229.175" y="111.98"/>
      <point x="263.65999999999997" y="77.99"/>
      <point x="263.65999999999997" y="54.505" type="qcurve" smooth="yes"/>
      <point x="263.65999999999997" y="28.505"/>
      <point x="229.175" y="-5.98"/>
      <point x="202.69" y="-5.98" type="qcurve" smooth="yes"/>
      <point x="176.20499999999998" y="-5.98"/>
      <point x="142.215" y="28.505"/>
    </contour>
  </outline>
</glyph>
<glyph name="four" format="2">
  <advance width="863"/>
  <unicode hex="0034"/>
  <outline>
    <contour>
      <point x="2.75" y="539.0" type="line"/>
      <point x="596.9449999999999" y="1520.91" type="line"/>
      <point x="621.46" y="1515.95" type="line"/>
      <point x="638.895" y="1477.94" type="line"/>
      <point x="634.905" y="527.05" type="line"/>
      <point x="637.38" y="47.97" type="line"/>
      <point x="833.85" y="17.455" type="line"/>
      <point x="833.85" y="0.0" type="line"/>
      <point x="372.01" y="0.0" type="line"/>
      <point x="372.01" y="17.455" type="line"/>
      <point x="585.965" y="47.97" type="line"/>
      <point x="587.46" y="530.05" type="line"/>
      <point x="583.48" y="1461.285" type="line"/>
      <point x="28.72" y="551.515" type="line"/>
      <point x="34.7" y="542.515" type="line"/>
      <point x="846.6800000000001" y="545.07" type="line"/>
      <point x="846.6800000000001" y="510.585" type="line"/>
      <point x="8.739999999999998" y="512.585" type="line"/>
    </contour>
  </outline>
</glyph>
<glyph name="nine" format="2">
  <advance width="919"/>
  <unicode hex="0039"/>
  <outline>
    <contour>
      <point x="35.87" y="1030.715" type="qcurve" smooth="yes"/>
      <point x="35.87" y="1266.725"/>
      <point x="262.74" y="1519.515"/>
      <point x="433.98" y="1519.515" type="qcurve" smooth="yes"/>
      <point x="610.13" y="1519.515"/>
      <point x="858.475" y="1242.035"/>
      <point x="858.475" y="881.1" type="qcurve" smooth="yes"/>
      <point x="858.475" y="524.1"/>
      <point x="494.68" y="31.04"/>
      <point x="262.84000000000003" y="-26.96" type="qcurve"/>
      <point x="260.315" y="-16.495" type="line"/>
      <point x="480.265" y="39.555"/>
      <point x="802.615" y="538.04"/>
      <point x="802.615" y="892.14" type="qcurve" smooth="yes"/>
      <point x="802.615" y="1225.43"/>
      <point x="598.13" y="1505.515"/>
      <point x="433.96000000000004" y="1505.515" type="qcurve" smooth="yes"/>
      <point x="273.76" y="1505.515"/>
      <point x="96.245" y="1268.785"/>
      <point x="96.245" y="1037.34" type="qcurve" smooth="yes"/>
      <point x="96.245" y="805.19"/>
      <point x="236.615" y="595.915"/>
      <point x="359.03499999999997" y="595.915" type="qcurve"/>
      <point x="441.485" y="595.915"/>
      <point x="582.38" y="656.22"/>
      <point x="608.8050000000001" y="688.745" type="qcurve"/>
      <point x="618.31" y="677.24" type="line"/>
      <point x="588.915" y="644.24"/>
      <point x="446.54499999999996" y="581.885"/>
      <point x="357.04499999999996" y="581.885" type="qcurve"/>
      <point x="220.64499999999998" y="581.885"/>
      <point x="35.87" y="790.645"/>
    </contour>
  </outline>
</glyph>
<glyph name="semicolon" format="2">
  <advance width="386"/>
  <unicode hex="003B"/>
  <outline>
    <contour>
      <point x="107.88" y="-168.88" type="line"/>
      <point x="155.305" y="-124.98"/>
      <point x="206.81" y="-50.97"/>
      <point x="217.335" y="9.565000000000001" type="qcurve"/>
      <point x="178.245" y="1.04"/>
      <point x="142.225" y="30.05"/>
      <point x="142.225" y="54.06" type="qcurve" smooth="yes"/>
      <point x="142.225" y="82.04"/>
      <point x="176.225" y="110.535"/>
      <point x="198.71" y="110.535" type="qcurve" smooth="yes"/>
      <point x="222.7" y="110.535"/>
      <point x="254.7" y="75.575"/>
      <point x="254.7" y="47.525" type="qcurve" smooth="yes"/>
      <point x="254.7" y="-7.05"/>
      <point x="166.315" y="-137.405"/>
      <point x="114.88" y="-178.365" type="qcurve"/>
    </contour>
    <contour>
      <point x="144.59" y="814.11" type="qcurve" smooth="yes"/>
      <point x="144.59" y="836.11"/>
      <point x="177.095" y="870.595"/>
      <point x="202.59" y="870.595" type="qcurve" smooth="yes"/>
      <point x="228.085" y="870.595"/>
      <point x="261.085" y="836.11"/>
      <point x="261.085" y="814.11" type="qcurve" smooth="yes"/>
      <point x="261.085" y="787.615"/>
      <point x="228.085" y="753.13"/>
      <point x="202.59" y="753.13" type="qcurve" smooth="yes"/>
      <point x="177.095" y="753.13"/>
      <point x="144.59" y="787.615"/>
    </contour>
  </outline>
</glyph>
<glyph name="less" format="2">
  <advance width="821"/>
  <unicode hex="003C"/>
  <outline>
    <contour>
      <point x="87.815" y="631.595" type="qcurve"/>
      <point x="112.795" y="647.09"/>
      <point x="631.0" y="897.91"/>
      <point x="689.85" y="924.89" type="qcurve" smooth="yes"/>
      <point x="721.225" y="938.86"/>
      <point x="726.74" y="917.87"/>
      <point x="696.85" y="905.395" type="qcurve" smooth="yes"/>
      <point x="638.02" y="880.425"/>
      <point x="209.79" y="665.9"/>
      <point x="144.785" y="638.585" type="qcurve"/>
      <point x="205.325" y="608.785"/>
      <point x="627.675" y="386.0"/>
      <point x="716.365" y="344.565" type="qcurve" smooth="yes"/>
      <point x="737.285" y="334.585"/>
      <point x="729.79" y="311.615"/>
      <point x="709.345" y="321.11" type="qcurve" smooth="yes"/>
      <point x="614.675" y="366.555"/>
      <point x="114.765" y="614.1"/>
    </contour>
  </outline>
</glyph>
<glyph name="equal" format="2">
  <advance width="904"/>
  <unicode hex="003D"/>
  <outline>
    <contour>
      <point x="102.265" y="468.2" type="line"/>
      <point x="102.265" y="488.12" type="line"/>
      <point x="450.485" y="493.695" type="line"/>
      <point x="802.2" y="487.625" type="line"/>
      <point x="802.4235483870968" y="468.2" type="line"/>
      <point x="450.5967741935484" y="463.625" type="line"/>
    </contour>
    <contour>
      <point x="102.265" y="725.86" type="line"/>
      <point x="102.265" y="745.285" type="line"/>
      <point x="450.485" y="749.86" type="line"/>
      <point x="802.2" y="745.285" type="line"/>
      <point x="802.2" y="725.86" type="line"/>
      <point x="450.485" y="720.285" type="line"/>
    </contour>
  </outline>
</glyph>
<glyph name="question" format="2">
  <advance width="792"/>
  <unicode hex="003F"/>
  <outline>
    <contour>
      <point x="222.20999999999998" y="55.495" type="qcurve" smooth="yes"/>
      <point x="222.20999999999998" y="78.485"/>
      <point x="255.70499999999998" y="113.465"/>
      <point x="281.695" y="113.465" type="qcurve" smooth="yes"/>
      <point x="307.685" y="113.465"/>
      <point x="340.685" y="78.485"/>
      <point x="340.685" y="55.495" type="qcurve" smooth="yes"/>
      <point x="340.685" y="29.0"/>
      <point x="307.685" y="-5.98"/>
      <point x="281.695" y="-5.98" type="qcurve" smooth="yes"/>
      <point x="255.70499999999998" y="-5.98"/>
      <point x="222.20999999999998" y="29.0"/>
    </contour>
    <contour>
      <point x="37.425" y="1297.23" type="qcurve" smooth="yes"/>
      <point x="37.425" y="1379.695"/>
      <point x="241.785" y="1533.0"/>
      <point x="391.85" y="1533.0" type="qcurve" smooth="yes"/>
      <point x="544.895" y="1533.0"/>
      <point x="765.365" y="1366.08"/>
      <point x="765.365" y="1215.595" type="qcurve" smooth="yes"/>
      <point x="765.365" y="1072.625"/>
      <point x="647.23" y="894.06"/>
      <point x="507.43" y="800.87" type="qcurve" smooth="yes"/>
      <point x="375.65" y="714.215"/>
      <point x="258.78499999999997" y="554.275"/>
      <point x="266.705" y="405.345" type="qcurve" smooth="yes"/>
      <point x="268.685" y="356.75" type="line"/>
      <point x="254.22" y="356.75" type="line"/>
      <point x="251.25" y="429.425" type="line" smooth="yes"/>
      <point x="243.83499999999998" y="592.09"/>
      <point x="359.505" y="770.405"/>
      <point x="482.105" y="853.465" type="qcurve" smooth="yes"/>
      <point x="601.23" y="935.04"/>
      <point x="713.255" y="1097.615"/>
      <point x="713.255" y="1217.665" type="qcurve" smooth="yes"/>
      <point x="713.255" y="1360.16"/>
      <point x="535.39" y="1519.02"/>
      <point x="386.81" y="1519.02" type="qcurve" smooth="yes"/>
      <point x="257.675" y="1519.02"/>
      <point x="77.7" y="1395.02"/>
      <point x="77.7" y="1341.595" type="qcurve" smooth="yes"/>
      <point x="84.63" y="1332.625"/>
      <point x="149.195" y="1293.15"/>
      <point x="150.7" y="1267.18" type="qcurve" smooth="yes"/>
      <point x="152.20499999999998" y="1243.22"/>
      <point x="124.245" y="1212.735"/>
      <point x="98.285" y="1212.735" type="qcurve" smooth="yes"/>
      <point x="70.365" y="1212.735"/>
      <point x="37.425" y="1257.745"/>
    </contour>
  </outline>
</glyph>
<glyph name="at" format="2">
  <advance width="1496"/>
  <unicode hex="0040"/>
  <outline>
    <contour>
      <point x="41.76" y="752.575" type="qcurve" smooth="yes"/>
      <point x="41.76" y="1094.08"/>
      <point x="476.03499999999997" y="1515.0"/>
      <point x="763.48" y="1515.0" type="qcurve" smooth="yes"/>
      <point x="1071.46" y="1515.0"/>
      <point x="1452.18" y="1116.0"/>
      <point x="1452.18" y="821.185" type="qcurve" smooth="yes"/>
      <point x="1452.18" y="601.565"/>
      <point x="1248.385" y="362.565"/>
      <point x="1098.37" y="362.565" type="qcurve" smooth="yes"/>
      <point x="1006.095" y="362.565"/>
      <point x="924.75" y="446.675"/>
      <point x="919.81" y="527.96" type="qcurve"/>
      <point x="903.425" y="472.97"/>
      <point x="754.975" y="370.05"/>
      <point x="661.235" y="370.05" type="qcurve" smooth="yes"/>
      <point x="558.02" y="370.05"/>
      <point x="422.34000000000003" y="464.03"/>
      <point x="422.34000000000003" y="564.495" type="qcurve" smooth="yes"/>
      <point x="422.34000000000003" y="679.01"/>
      <point x="656.365" y="829.605"/>
      <point x="946.78" y="837.0" type="qcurve"/>
      <point x="946.77" y="824.495" type="line"/>
      <point x="667.78" y="819.11"/>
      <point x="485.15999999999997" y="665.9"/>
      <point x="485.15999999999997" y="559.02" type="qcurve" smooth="yes"/>
      <point x="485.15999999999997" y="471.95"/>
      <point x="568.485" y="382.565"/>
      <point x="660.72" y="382.565" type="qcurve" smooth="yes"/>
      <point x="756.985" y="382.565"/>
      <point x="914.375" y="499.96"/>
      <point x="921.81" y="602.0" type="qcurve" smooth="yes"/>
      <point x="924.3050000000001" y="890.0" type="line" smooth="yes"/>
      <point x="925.2950000000001" y="1038.0"/>
      <point x="803.14" y="1148.95"/>
      <point x="714.45" y="1148.95" type="qcurve" smooth="yes"/>
      <point x="638.245" y="1148.95"/>
      <point x="534.0" y="1080.535"/>
      <point x="519.09" y="1041.02" type="qcurve"/>
      <point x="545.09" y="1033.07"/>
      <point x="595.05" y="992.615"/>
      <point x="595.05" y="964.15" type="qcurve" smooth="yes"/>
      <point x="595.05" y="935.22"/>
      <point x="565.12" y="906.775"/>
      <point x="539.19" y="906.775" type="qcurve" smooth="yes"/>
      <point x="510.23" y="906.775"/>
      <point x="475.805" y="948.745"/>
      <point x="475.805" y="989.705" type="qcurve" smooth="yes"/>
      <point x="475.805" y="1059.655"/>
      <point x="623.3050000000001" y="1164.95"/>
      <point x="722.035" y="1164.95" type="qcurve" smooth="yes"/>
      <point x="838.5550000000001" y="1164.95"/>
      <point x="979.6600000000001" y="1035.565"/>
      <point x="978.6800000000001" y="884.665" type="qcurve" smooth="yes"/>
      <point x="976.73" y="524.1" type="line" smooth="yes"/>
      <point x="976.74" y="451.1"/>
      <point x="1051.56" y="387.14"/>
      <point x="1104.33" y="387.14" type="qcurve" smooth="yes"/>
      <point x="1248.8899999999999" y="387.14"/>
      <point x="1427.27" y="610.545"/>
      <point x="1427.27" y="819.185" type="qcurve" smooth="yes"/>
      <point x="1427.27" y="1122.09"/>
      <point x="1054.3600000000001" y="1502.02"/>
      <point x="765.9449999999999" y="1502.02" type="qcurve" smooth="yes"/>
      <point x="482.025" y="1502.02"/>
      <point x="81.005" y="1094.0"/>
      <point x="81.005" y="759.99" type="qcurve" smooth="yes"/>
      <point x="81.5" y="388.86"/>
      <point x="448.49" y="-12.0"/>
      <point x="745.38" y="-12.0" type="qcurve" smooth="yes"/>
      <point x="877.635" y="-12.0"/>
      <point x="1120.755" y="89.14"/>
      <point x="1172.93" y="146.04" type="qcurve"/>
      <point x="1180.415" y="139.08" type="line"/>
      <point x="1126.28" y="76.675"/>
      <point x="877.605" y="-25.0"/>
      <point x="748.855" y="-25.0" type="qcurve" smooth="yes"/>
      <point x="442.015" y="-25.0"/>
      <point x="41.76" y="370.95"/>
    </contour>
  </outline>
</glyph>
<glyph name="A" format="2">
  <advance width="1319"/>
  <unicode hex="0041"/>
  <outline>
    <contour>
      <point x="-28.495" y="0.0" type="line"/>
      <point x="-27.505" y="15.98" type="line"/>
      <point x="143.945" y="49.98" type="line"/>
      <point x="336.16499999999996" y="602.315" type="line"/>
      <point x="644.045" y="1506.0" type="line"/>
      <point x="702.6" y="1506.0" type="line"/>
      <point x="982.6" y="609.76" type="line"/>
      <point x="1161.385" y="45.455" type="line"/>
      <point x="1342.44" y="15.98" type="line"/>
      <point x="1341.45" y="0.0" type="line"/>
      <point x="908.53" y="0.0" type="line"/>
      <point x="910.52" y="15.98" type="line"/>
      <point x="1095.9099999999999" y="47.455" type="line"/>
      <point x="926.61" y="594.84" type="line"/>
      <point x="656.095" y="1462.515" type="line"/>
      <point x="360.155" y="594.85" type="line"/>
      <point x="173.39" y="52.475" type="line"/>
      <point x="363.92" y="15.98" type="line"/>
      <point x="362.93" y="0.0" type="line"/>
    </contour>
    <contour>
      <point x="662.63" y="605.335" type="line"/>
      <point x="953.0550000000001" y="608.83" type="line"/>
      <point x="961.995" y="582.375" type="line"/>
      <point x="661.64" y="583.365" type="line"/>
    </contour>
    <contour>
      <point x="344.185" y="580.375" type="line"/>
      <point x="354.145" y="610.83" type="line"/>
      <point x="662.63" y="605.335" type="line"/>
      <point x="661.64" y="583.365" type="line"/>
    </contour>
  </outline>
</glyph>
<glyph name="B" format="2">
  <advance width="1201"/>
  <unicode hex="0042"/>
  <outline>
    <contour>
      <point x="67.53" y="0.0" type="line"/>
      <point x="67.53" y="15.98" type="line"/>
      <point x="249.06" y="49.98" type="line"/>
      <point x="251.06" y="760.0" type="line"/>
      <point x="249.06" y="1447.03" type="line"/>
      <point x="67.53" y="1481.03" type="line"/>
      <point x="67.53" y="1500.0" type="line"/>
      <point x="546.235" y="1500.0" type="line" smooth="yes"/>
      <point x="800.74" y="1500.0"/>
      <point x="1025.01" y="1332.96"/>
      <point x="1025.01" y="1188.97" type="qcurve" smooth="yes"/>
      <point x="1025.01" y="1051.525"/>
      <point x="864.9549999999999" y="874.555"/>
      <point x="750.2049999999999" y="853.0" type="qcurve"/>
      <point x="750.2049999999999" y="848.0" type="line"/>
      <point x="900.905" y="839.92"/>
      <point x="1140.85" y="641.365"/>
      <point x="1141.345" y="459.83" type="qcurve" smooth="yes"/>
      <point x="1141.84" y="249.9"/>
      <point x="861.6600000000001" y="0.0"/>
      <point x="602.69" y="0.0" type="qcurve" smooth="yes"/>
    </contour>
    <contour>
      <point x="307.525" y="36.0" type="line"/>
      <point x="324.06" y="24.465" type="line"/>
      <point x="628.44" y="22.465" type="line" smooth="yes"/>
      <point x="831.62" y="20.96"/>
      <point x="1071.87" y="217.0"/>
      <point x="1071.87" y="449.0" type="qcurve" smooth="yes"/>
      <point x="1071.87" y="652.0"/>
      <point x="839.875" y="836.0"/>
      <point x="658.74" y="836.0" type="qcurve" smooth="yes"/>
      <point x="304.505" y="836.0" type="line"/>
      <point x="303.525" y="827.0" type="line"/>
    </contour>
    <contour>
      <point x="305.03" y="866.0" type="line"/>
      <point x="304.01" y="852.0" type="line"/>
      <point x="639.01" y="852.0" type="line" smooth="yes"/>
      <point x="793.015" y="852.0"/>
      <point x="954.12" y="1040.0"/>
      <point x="954.12" y="1188.0" type="qcurve" smooth="yes"/>
      <point x="954.12" y="1338.02"/>
      <point x="772.275" y="1477.99"/>
      <point x="565.895" y="1477.99" type="qcurve" smooth="yes"/>
      <point x="333.495" y="1477.99" type="line"/>
      <point x="307.525" y="1454.505" type="line"/>
    </contour>
  </outline>
</glyph>
<glyph name="C" format="2">
  <advance width="1225"/>
  <unicode hex="0043"/>
  <outline>
    <contour>
      <point x="65.87" y="727.14" type="qcurve" smooth="yes"/>
      <point x="65.87" y="1077.13"/>
      <point x="422.37" y="1513.97"/>
      <point x="691.22" y="1513.97" type="qcurve" smooth="yes"/>
      <point x="868.985" y="1513.97"/>
      <point x="1095.4" y="1395.635"/>
      <point x="1133.24" y="1343.2" type="qcurve"/>
      <point x="1166.1599999999999" y="1492.535" type="line"/>
      <point x="1181.1100000000001" y="1492.535" type="line"/>
      <point x="1181.1100000000001" y="1031.495" type="line"/>
      <point x="1163.655" y="1031.495" type="line"/>
      <point x="1132.25" y="1210.545" type="line" smooth="yes"/>
      <point x="1111.815" y="1326.555"/>
      <point x="886.3" y="1493.445"/>
      <point x="684.22" y="1493.445" type="qcurve" smooth="yes"/>
      <point x="435.34000000000003" y="1493.445"/>
      <point x="133.81" y="1076.385"/>
      <point x="132.8" y="726.04" type="qcurve" smooth="yes"/>
      <point x="131.79" y="401.88"/>
      <point x="439.53999999999996" y="9.05"/>
      <point x="683.0550000000001" y="9.05" type="qcurve" smooth="yes"/>
      <point x="896.875" y="9.05"/>
      <point x="1163.1399999999999" y="199.185"/>
      <point x="1214.325" y="327.68" type="qcurve"/>
      <point x="1223.355" y="323.195" type="line"/>
      <point x="1175.685" y="182.225"/>
      <point x="897.9549999999999" y="-21.97"/>
      <point x="677.51" y="-21.97" type="qcurve" smooth="yes"/>
      <point x="410.48" y="-21.97"/>
      <point x="65.87" y="373.86"/>
    </contour>
  </outline>
</glyph>
<glyph name="F" format="2">
  <advance width="1043"/>
  <unicode hex="0046"/>
  <outline>
    <contour>
      <point x="67.53" y="0.0" type="line"/>
      <point x="67.53" y="15.98" type="line"/>
      <point x="249.565" y="48.98" type="line"/>
      <point x="251.565" y="766.97" type="line"/>
      <point x="249.565" y="1447.03" type="line"/>
      <point x="67.53" y="1480.535" type="line"/>
      <point x="67.53" y="1500.0" type="line"/>
      <point x="1010.26" y="1500.0" type="line"/>
      <point x="1010.26" y="1138.05" type="line"/>
      <point x="996.3" y="1138.05" type="line"/>
      <point x="917.845" y="1479.515" type="line"/>
      <point x="323.97" y="1481.0" type="line"/>
      <point x="304.02" y="1442.0" type="line"/>
      <point x="305.525" y="815.0" type="line"/>
      <point x="307.525" y="53.475" type="line"/>
      <point x="496.66999999999996" y="15.98" type="line"/>
      <point x="496.66999999999996" y="0.0" type="line"/>
    </contour>
    <contour>
      <point x="288.15" y="777.525" type="line"/>
      <point x="288.15" y="799.475" type="line"/>
      <point x="829.0450000000001" y="797.485" type="line"/>
      <point x="892.47" y="996.0" type="line"/>
      <point x="906.48" y="996.0" type="line"/>
      <point x="906.48" y="540.0" type="line"/>
      <point x="892.47" y="540.0" type="line"/>
      <point x="829.0450000000001" y="771.515" type="line"/>
    </contour>
  </outline>
</glyph>
<glyph name="G" format="2">
  <advance width="1365"/>
  <unicode hex="0047"/>
  <outline>
    <contour>
      <point x="70.345" y="754.515" type="qcurve" smooth="yes"/>
      <point x="70.345" y="1099.98"/>
      <point x="429.895" y="1518.99"/>
      <point x="676.905" y="1518.99" type="qcurve" smooth="yes"/>
      <point x="848.6800000000001" y="1518.99"/>
      <point x="1075.6399999999999" y="1396.595"/>
      <point x="1113.4099999999999" y="1346.26" type="qcurve"/>
      <point x="1149.865" y="1491.01" type="line"/>
      <point x="1163.825" y="1490.01" type="line"/>
      <point x="1163.825" y="1030.01" type="line"/>
      <point x="1149.33" y="1030.01" type="line"/>
      <point x="1115.955" y="1208.89" type="line" smooth="yes"/>
      <point x="1089.5" y="1360.615"/>
      <point x="831.71" y="1501.515"/>
      <point x="675.925" y="1501.515" type="qcurve" smooth="yes"/>
      <point x="450.865" y="1501.515"/>
      <point x="135.76" y="1152.11"/>
      <point x="135.76" y="775.98" type="qcurve" smooth="yes"/>
      <point x="135.76" y="394.535"/>
      <point x="455.83500000000004" y="-3.425"/>
      <point x="699.5" y="-3.425" type="qcurve" smooth="yes"/>
      <point x="841.78" y="-3.425"/>
      <point x="1090.43" y="83.385"/>
      <point x="1132.1599999999999" y="116.77" type="qcurve"/>
      <point x="1130.675" y="666.0" type="line"/>
      <point x="928.4649999999999" y="693.0" type="line"/>
      <point x="928.4649999999999" y="705.0" type="line"/>
      <point x="1361.105" y="705.0" type="line"/>
      <point x="1361.105" y="693.0" type="line"/>
      <point x="1189.13" y="666.0" type="line"/>
      <point x="1189.13" y="124.175" type="line"/>
      <point x="1120.835" y="67.295"/>
      <point x="838.0550000000001" y="-21.455"/>
      <point x="687.4" y="-21.455" type="qcurve" smooth="yes"/>
      <point x="434.91499999999996" y="-21.455"/>
      <point x="70.345" y="380.99"/>
    </contour>
  </outline>
</glyph>
<glyph name="I" format="2">
  <advance width="571"/>
  <unicode hex="0049"/>
  <outline>
    <contour>
      <point x="77.53" y="0.0" type="line"/>
      <point x="77.53" y="15.98" type="line"/>
      <point x="255.07999999999998" y="50.98" type="line"/>
      <point x="257.08" y="754.0" type="line"/>
      <point x="255.07999999999998" y="1447.10575" type="line"/>
      <point x="77.53" y="1481.10575" type="line"/>
      <point x="77.53" y="1500.0" type="line"/>
      <point x="493.6" y="1500.0" type="line"/>
      <point x="493.6" y="1481.10575" type="line"/>
      <point x="316.05" y="1447.10575" type="line"/>
      <point x="314.05" y="754.0" type="line"/>
      <point x="316.05" y="49.98" type="line"/>
      <point x="493.6" y="15.98" type="line"/>
      <point x="493.6" y="0.0" type="line"/>
    </contour>
  </outline>
</glyph>
<glyph name="J" format="2">
  <advance width="575"/>
  <unicode hex="004A"/>
  <outline>
    <contour>
      <point x="7.174999999999997" y="8.04" type="qcurve"/>
      <point x="14.174999999999997" y="27.07" type="line"/>
      <point x="24.185" y="20.555"/>
      <point x="89.46000000000001" y="8.07"/>
      <point x="130.915" y="8.07" type="qcurve" smooth="yes"/>
      <point x="206.855" y="8.07"/>
      <point x="305.645" y="142.605"/>
      <point x="307.14" y="311.735" type="qcurve" smooth="yes"/>
      <point x="310.13" y="674.0" type="line"/>
      <point x="307.635" y="1447.03" type="line"/>
      <point x="95.58" y="1481.03" type="line"/>
      <point x="95.58" y="1500.0" type="line"/>
      <point x="571.65" y="1500.0" type="line"/>
      <point x="571.65" y="1481.03" type="line"/>
      <point x="367.09000000000003" y="1447.03" type="line"/>
      <point x="365.09000000000003" y="674.0" type="line"/>
      <point x="360.545" y="272.07" type="line" smooth="yes"/>
      <point x="359.03" y="138.575"/>
      <point x="234.755" y="-18.445"/>
      <point x="138.34" y="-18.445" type="qcurve" smooth="yes"/>
      <point x="83.47" y="-18.445"/>
      <point x="21.155" y="-0.45500000000000007"/>
    </contour>
  </outline>
</glyph>
<glyph name="K" format="2">
  <advance width="1195"/>
  <unicode hex="004B"/>
  <outline>
    <contour>
      <point x="67.53" y="0.0" type="line"/>
      <point x="67.53" y="15.98" type="line"/>
      <point x="249.06" y="50.98" type="line"/>
      <point x="251.06" y="754.0" type="line"/>
      <point x="249.06" y="1447.03" type="line"/>
      <point x="67.53" y="1481.03" type="line"/>
      <point x="67.53" y="1500.0" type="line"/>
      <point x="503.925" y="1500.0" type="line"/>
      <point x="503.925" y="1481.03" type="line"/>
      <point x="309.02" y="1447.03" type="line"/>
      <point x="305.53499999999997" y="754.0" type="line"/>
      <point x="309.02" y="50.98" type="line"/>
      <point x="494.025" y="15.98" type="line"/>
      <point x="494.025" y="0.0" type="line"/>
    </contour>
    <contour>
      <point x="282.01" y="567.195" type="line"/>
      <point x="280.515" y="593.78" type="line"/>
      <point x="1007.655" y="1441.99" type="line"/>
      <point x="800.315" y="1481.03" type="line"/>
      <point x="800.315" y="1500.0" type="line"/>
      <point x="1247.0149999999999" y="1500.0" type="line"/>
      <point x="1247.0149999999999" y="1481.03" type="line"/>
      <point x="1036.565" y="1440.99" type="line"/>
      <point x="551.0699999999999" y="882.98" type="line"/>
      <point x="542.11" y="873.485" type="line"/>
    </contour>
    <contour>
      <point x="522.635" y="858.435" type="line"/>
      <point x="562.575" y="911.555" type="line"/>
      <point x="1119.73" y="49.485" type="line"/>
      <point x="1310.3600000000001" y="15.98" type="line"/>
      <point x="1310.3600000000001" y="0.0" type="line"/>
      <point x="863.0350000000001" y="0.0" type="line"/>
      <point x="863.0350000000001" y="15.98" type="line"/>
      <point x="1046.355" y="49.485" type="line"/>
    </contour>
  </outline>
</glyph>
<glyph name="M" format="2">
  <advance width="1669"/>
  <unicode hex="004D"/>
  <outline>
    <contour>
      <point x="67.5" y="0.0" type="line"/>
      <point x="67.5" y="15.98" type="line"/>
      <point x="262.515" y="68.98" type="line"/>
      <point x="266.01" y="746.0" type="line"/>
      <point x="266.03" y="1442.07" type="line"/>
      <point x="65.55" y="1481.03" type="line"/>
      <point x="65.55" y="1500.0" type="line"/>
      <point x="326.28499999999997" y="1500.0" type="line"/>
      <point x="591.87" y="742.545" type="line"/>
      <point x="836.525" y="61.405" type="line"/>
      <point x="1097.455" y="770.91" type="line"/>
      <point x="1360.93" y="1499.01" type="line"/>
      <point x="1601.845" y="1500.0" type="line"/>
      <point x="1601.845" y="1480.525" type="line"/>
      <point x="1420.8200000000002" y="1442.07" type="line"/>
      <point x="1418.8200000000002" y="751.0" type="line"/>
      <point x="1420.8200000000002" y="50.98" type="line"/>
      <point x="1601.845" y="15.98" type="line"/>
      <point x="1601.845" y="0.0" type="line"/>
      <point x="1176.875" y="2.0" type="line"/>
      <point x="1176.875" y="17.98" type="line"/>
      <point x="1361.88" y="50.98" type="line"/>
      <point x="1362.87" y="750.0" type="line"/>
      <point x="1356.85" y="1395.55" type="line"/>
      <point x="1116.96" y="761.455" type="line"/>
      <point x="840.585" y="2.475" type="line"/>
      <point x="792.565" y="2.475" type="line"/>
      <point x="543.86" y="716.1" type="line"/>
      <point x="291.41499999999996" y="1410.65" type="line"/>
      <point x="287.92" y="743.0" type="line"/>
      <point x="285.92" y="68.98" type="line"/>
      <point x="474.995" y="17.98" type="line"/>
      <point x="474.995" y="2.0" type="line"/>
    </contour>
  </outline>
</glyph>
<glyph name="N" format="2">
  <advance width="1419"/>
  <unicode hex="004E"/>
  <outline>
    <contour>
      <point x="75.065" y="0.0" type="line"/>
      <point x="75.065" y="15.98" type="line"/>
      <point x="257.97" y="68.475" type="line"/>
      <point x="260.455" y="752.99" type="line"/>
      <point x="260.96" y="1443.07" type="line"/>
      <point x="66.045" y="1481.03" type="line"/>
      <point x="66.045" y="1500.0" type="line"/>
      <point x="307.9" y="1500.0" type="line"/>
      <point x="743.5550000000001" y="770.415" type="line"/>
      <point x="1157.26" y="81.405" type="line"/>
      <point x="1157.31" y="749.525" type="line"/>
      <point x="1149.825" y="1429.03" type="line"/>
      <point x="934.405" y="1481.03" type="line"/>
      <point x="934.405" y="1500.0" type="line"/>
      <point x="1360.2150000000001" y="1500.0" type="line"/>
      <point x="1360.2150000000001" y="1481.03" type="line"/>
      <point x="1178.24" y="1429.03" type="line"/>
      <point x="1177.715" y="749.02" type="line"/>
      <point x="1183.19" y="-0.9699999999999998" type="line"/>
      <point x="1137.1100000000001" y="-0.9699999999999998" type="line"/>
      <point x="695.515" y="737.545" type="line"/>
      <point x="283.86" y="1419.425" type="line"/>
      <point x="281.355" y="752.485" type="line"/>
      <point x="284.88" y="68.475" type="line"/>
      <point x="482.5" y="15.98" type="line"/>
      <point x="482.5" y="0.0" type="line"/>
    </contour>
  </outline>
</glyph>
<glyph name="O" format="2">
  <advance width="1393"/>
  <unicode hex="004F"/>
  <outline>
    <contour>
      <point x="69.84" y="744.505" type="qcurve" smooth="yes"/>
      <point x="69.84" y="1077.545"/>
      <point x="425.99125000000004" y="1519.0"/>
      <point x="696.2043548387096" y="1519.0" type="qcurve" smooth="yes"/>
      <point x="971.4472983870968" y="1519.0"/>
      <point x="1322.72" y="1096.545"/>
      <point x="1322.72" y="760.97" type="qcurve" smooth="yes"/>
      <point x="1322.72" y="425.565"/>
      <point x="976.0109677419355" y="-21.455"/>
      <point x="698.9716129032258" y="-21.455" type="qcurve" smooth="yes"/>
      <point x="429.1845161290322" y="-21.455"/>
      <point x="69.84" y="409.07"/>
    </contour>
    <contour>
      <point x="138.79" y="781.605" type="qcurve" smooth="yes"/>
      <point x="138.79" y="412.07"/>
      <point x="456.37" y="-6.455"/>
      <point x="708.1422983870968" y="-6.57875" type="qcurve" smooth="yes"/>
      <point x="952.0899999999999" y="-6.455"/>
      <point x="1253.78" y="384.07"/>
      <point x="1253.78" y="753.08" type="qcurve" smooth="yes"/>
      <point x="1253.78" y="1104.555"/>
      <point x="946.2" y="1501.01"/>
      <point x="691.1422983870968" y="1501.01" type="qcurve" smooth="yes"/>
      <point x="454.38" y="1501.01"/>
      <point x="138.79" y="1148.655"/>
    </contour>
  </outline>
</glyph>
<glyph name="P" format="2">
  <advance width="1126"/>
  <unicode hex="0050"/>
  <outline>
    <contour>
      <point x="68.53" y="0.0" type="line"/>
      <point x="68.53" y="15.475" type="line"/>
      <point x="249.06" y="49.465" type="line"/>
      <point x="251.06" y="762.0" type="line"/>
      <point x="249.565" y="1447.03" type="line"/>
      <point x="67.53" y="1482.02" type="line"/>
      <point x="67.53" y="1500.0" type="line"/>
      <point x="621.5458467741935" y="1500.0" type="line" smooth="yes"/>
      <point x="811.04" y="1500.0"/>
      <point x="1044.6219758064517" y="1297.8339354838708"/>
      <point x="1044.6219758064517" y="1101.932935483871" type="qcurve" smooth="yes"/>
      <point x="1044.6219758064517" y="885.6116854838709"/>
      <point x="793.3199999999999" y="635.535"/>
      <point x="573.275" y="635.535" type="qcurve" smooth="yes"/>
      <point x="505.675" y="635.535"/>
      <point x="328.515" y="651.505"/>
      <point x="289.655" y="663.4359999999999" type="qcurve"/>
      <point x="292.14" y="683.05" type="line"/>
      <point x="332.07" y="672.0"/>
      <point x="525.635" y="655.04"/>
      <point x="597.2049999999999" y="655.04" type="qcurve" smooth="yes"/>
      <point x="758.835" y="655.04"/>
      <point x="978.1949999999999" y="851.02"/>
      <point x="978.1949999999999" y="1095.0" type="qcurve" smooth="yes"/>
      <point x="978.1949999999999" y="1292.0"/>
      <point x="774.5550000000001" y="1479.515"/>
      <point x="599.9449999999999" y="1478.01" type="qcurve" smooth="yes"/>
      <point x="325.505" y="1477.0" type="line"/>
      <point x="307.01" y="1449.495" type="line"/>
      <point x="305.525" y="766.0" type="line"/>
      <point x="307.525" y="51.99" type="line"/>
      <point x="505.53999999999996" y="15.485" type="line"/>
      <point x="505.53999999999996" y="0.0" type="line"/>
    </contour>
  </outline>
</glyph>
<glyph name="Q" format="2">
  <advance width="1393"/>
  <unicode hex="0051"/>
  <outline>
    <contour>
      <point x="69.84" y="744.0" type="qcurve" smooth="yes"/>
      <point x="69.84" y="1078.535"/>
      <point x="424.865" y="1519.0"/>
      <point x="694.7950000000001" y="1519.0" type="qcurve" smooth="yes"/>
      <point x="971.14" y="1519.0"/>
      <point x="1322.72" y="1096.525"/>
      <point x="1322.72" y="758.455" type="qcurve" smooth="yes"/>
      <point x="1322.72" y="422.545"/>
      <point x="978.7049999999999" y="-16.465"/>
      <point x="707.27" y="-16.465" type="qcurve" smooth="yes"/>
      <point x="450.37" y="-16.465"/>
      <point x="69.84" y="390.9"/>
    </contour>
    <contour>
      <point x="136.285" y="785.02" type="qcurve" smooth="yes"/>
      <point x="135.79" y="395.395"/>
      <point x="467.37" y="1.0700000000000003"/>
      <point x="707.29" y="1.0700000000000003" type="qcurve" smooth="yes"/>
      <point x="956.1700000000001" y="1.0700000000000003"/>
      <point x="1258.79" y="384.08"/>
      <point x="1258.79" y="753.08" type="qcurve" smooth="yes"/>
      <point x="1258.79" y="1104.05"/>
      <point x="943.685" y="1502.01"/>
      <point x="691.7950000000001" y="1502.01" type="qcurve" smooth="yes"/>
      <point x="453.865" y="1502.01"/>
      <point x="136.78" y="1148.13"/>
    </contour>
    <contour>
      <point x="212.2" y="-270.85" type="qcurve"/>
      <point x="200.31" y="-251.95" type="line"/>
      <point x="212.14" y="-233.445"/>
      <point x="439.61" y="-84.85"/>
      <point x="489.885" y="-56.87" type="qcurve" smooth="yes"/>
      <point x="725.78" y="160.025" type="line"/>
      <point x="733.295" y="143.48" type="line"/>
      <point x="505.3" y="-67.41499999999999" type="line"/>
      <point x="1002.6" y="-279.305" type="line"/>
      <point x="1070.42" y="-280.79"/>
      <point x="1204.495" y="-172.365"/>
      <point x="1249.385" y="-94.365" type="qcurve"/>
      <point x="1256.345" y="-98.85" type="line"/>
      <point x="1218.5149999999999" y="-193.85"/>
      <point x="1062.905" y="-335.9"/>
      <point x="993.355" y="-344.9" type="qcurve"/>
      <point x="537.33" y="-154.465" type="line" smooth="yes"/>
      <point x="462.08500000000004" y="-117.89"/>
      <point x="289.01" y="-202.85"/>
    </contour>
  </outline>
</glyph>
<glyph name="R" format="2">
  <advance width="1174"/>
  <unicode hex="0052"/>
  <outline>
    <contour>
      <point x="69.53" y="0.0" type="line"/>
      <point x="69.53" y="15.475" type="line"/>
      <point x="249.06" y="49.97" type="line"/>
      <point x="251.06" y="780.8" type="line"/>
      <point x="249.06" y="1449.03" type="line"/>
      <point x="67.53" y="1482.7825" type="line"/>
      <point x="67.53" y="1500.0" type="line"/>
      <point x="596.995" y="1500.0" type="line" smooth="yes"/>
      <point x="785.4549999999999" y="1500.0"/>
      <point x="999.025" y="1309.07"/>
      <point x="999.025" y="1133.1" type="qcurve" smooth="yes"/>
      <point x="999.025" y="945.475"/>
      <point x="792.79" y="722.675"/>
      <point x="616.05" y="722.675" type="qcurve" smooth="yes"/>
      <point x="562.775" y="722.675"/>
      <point x="333.475" y="723.675"/>
      <point x="284.06" y="726.655" type="qcurve"/>
      <point x="284.06" y="744.14" type="line"/>
      <point x="590.925" y="744.14" type="line" smooth="yes"/>
      <point x="789.2149999999999" y="744.14"/>
      <point x="934.095" y="951.1"/>
      <point x="934.095" y="1130.1" type="qcurve" smooth="yes"/>
      <point x="934.095" y="1302.505"/>
      <point x="762.315" y="1478.01"/>
      <point x="583.46" y="1478.01" type="qcurve" smooth="yes"/>
      <point x="331.545" y="1478.01" type="line"/>
      <point x="307.03" y="1452.515" type="line"/>
      <point x="304.53499999999997" y="756.05" type="line"/>
      <point x="306.53499999999997" y="49.97" type="line"/>
      <point x="508.53999999999996" y="15.98" type="line"/>
      <point x="508.53999999999996" y="0.0" type="line"/>
    </contour>
    <contour>
      <point x="675.24" y="738.665" type="line"/>
      <point x="733.1800000000001" y="749.695" type="line"/>
      <point x="963.74" y="224.0" type="line" smooth="yes"/>
      <point x="1021.61" y="94.0"/>
      <point x="1086.3" y="30.495"/>
      <point x="1199.565" y="18.495" type="qcurve"/>
      <point x="1199.565" y="-0.505" type="line"/>
      <point x="1011.55" y="-0.505" type="line"/>
      <point x="994.5699999999999" y="17.05" type="line"/>
    </contour>
  </outline>
</glyph>
<glyph name="S" format="2">
  <advance width="1053"/>
  <unicode hex="0053"/>
  <outline>
    <contour>
      <point x="73.74" y="0.505" type="line"/>
      <point x="73.74" y="441.0" type="line"/>
      <point x="90.68" y="441.0" type="line"/>
      <point x="133.215" y="265.155" type="line" smooth="yes"/>
      <point x="166.125" y="134.88"/>
      <point x="416.53999999999996" y="-8.02"/>
      <point x="580.1949999999999" y="-8.02" type="qcurve" smooth="yes"/>
      <point x="753.81" y="-8.02"/>
      <point x="956.5550000000001" y="188.325"/>
      <point x="956.5550000000001" y="328.275" type="qcurve" smooth="yes"/>
      <point x="956.5550000000001" y="456.78"/>
      <point x="810.53" y="635.435"/>
      <point x="514.335" y="752.445" type="qcurve" smooth="yes"/>
      <point x="226.94" y="869.535"/>
      <point x="101.055" y="1063.12"/>
      <point x="101.055" y="1195.535" type="qcurve" smooth="yes"/>
      <point x="101.055" y="1332.535"/>
      <point x="309.78999999999996" y="1514.475"/>
      <point x="489.94" y="1514.475" type="qcurve" smooth="yes"/>
      <point x="645.645" y="1514.475"/>
      <point x="829.36" y="1417.585"/>
      <point x="872.2" y="1347.12" type="qcurve"/>
      <point x="908.12" y="1497.02" type="line"/>
      <point x="921.0799999999999" y="1497.02" type="line"/>
      <point x="921.0799999999999" y="1087.2" type="line"/>
      <point x="905.635" y="1087.2" type="line"/>
      <point x="853.23" y="1284.695" type="line" smooth="yes"/>
      <point x="825.7950000000001" y="1386.625"/>
      <point x="630.675" y="1495.99"/>
      <point x="484.90999999999997" y="1495.99" type="qcurve" smooth="yes"/>
      <point x="323.225" y="1495.99"/>
      <point x="130.41" y="1326.515"/>
      <point x="130.41" y="1199.505" type="qcurve" smooth="yes"/>
      <point x="130.41" y="1083.05"/>
      <point x="270.88" y="933.98"/>
      <point x="555.67" y="818.98" type="qcurve" smooth="yes"/>
      <point x="846.5799999999999" y="698.91"/>
      <point x="997.9" y="502.225"/>
      <point x="997.9" y="350.345" type="qcurve" smooth="yes"/>
      <point x="997.9" y="182.345"/>
      <point x="761.8199999999999" y="-26.01"/>
      <point x="576.71" y="-26.01" type="qcurve" smooth="yes"/>
      <point x="405.115" y="-26.01"/>
      <point x="189.48" y="89.355"/>
      <point x="137.63" y="172.375" type="qcurve"/>
      <point x="86.71000000000001" y="0.505" type="line"/>
    </contour>
  </outline>
</glyph>
<glyph name="T" format="2">
  <advance width="1193"/>
  <unicode hex="0054"/>
  <outline>
    <contour>
      <point x="29.325" y="1173.25" type="line"/>
      <point x="29.325" y="1500.0" type="line"/>
      <point x="1163.275" y="1500.0" type="line"/>
      <point x="1163.275" y="1170.775" type="line"/>
      <point x="1148.81" y="1170.775" type="line"/>
      <point x="1070.8600000000001" y="1482.0" type="line"/>
      <point x="665.425" y="1482.0" type="line"/>
      <point x="630.355" y="1479.525" type="line"/>
      <point x="629.345" y="754.0" type="line"/>
      <point x="632.85" y="49.97" type="line"/>
      <point x="829.815" y="15.475" type="line"/>
      <point x="829.815" y="0.0" type="line"/>
      <point x="366.875" y="0.0" type="line"/>
      <point x="366.875" y="15.475" type="line"/>
      <point x="569.355" y="49.97" type="line"/>
      <point x="572.86" y="754.0" type="line"/>
      <point x="573.85" y="1477.525" type="line"/>
      <point x="533.8" y="1482.0" type="line"/>
      <point x="119.285" y="1482.0" type="line"/>
      <point x="43.81" y="1173.25" type="line"/>
    </contour>
  </outline>
</glyph>
<glyph name="V" format="2">
  <advance width="1333"/>
  <unicode hex="0056"/>
  <outline>
    <contour>
      <point x="-24.04" y="1482.545" type="line"/>
      <point x="-24.04" y="1500.0" type="line"/>
      <point x="453.05" y="1500.0" type="line"/>
      <point x="453.05" y="1482.545" type="line"/>
      <point x="241.965" y="1455.04" type="line"/>
      <point x="461.975" y="786.575" type="line"/>
      <point x="707.39" y="45.94" type="line"/>
      <point x="943.36" y="811.275" type="line"/>
      <point x="1126.215" y="1450.575" type="line"/>
      <point x="903.16" y="1482.545" type="line"/>
      <point x="903.16" y="1500.0" type="line"/>
      <point x="1368.1399999999999" y="1500.0" type="line"/>
      <point x="1368.635" y="1482.545" type="line"/>
      <point x="1158.6100000000001" y="1450.09" type="line"/>
      <point x="966.3199999999999" y="806.295" type="line"/>
      <point x="718.38" y="-5.0" type="line"/>
      <point x="661.895" y="-5.0" type="line"/>
      <point x="407.985" y="768.15" type="line"/>
      <point x="179.53" y="1453.04" type="line"/>
    </contour>
  </outline>
</glyph>
<glyph name="X" format="2">
  <advance width="1296"/>
  <unicode hex="0058"/>
  <outline>
    <contour>
      <point x="-21.615000000000002" y="0.0" type="line"/>
      <point x="-21.615000000000002" y="16.485" type="line"/>
      <point x="218.32999999999998" y="48.375" type="line"/>
      <point x="645.61" y="791.92" type="line"/>
      <point x="652.105" y="791.92" type="line"/>
      <point x="1016.7049999999999" y="1447.575" type="line"/>
      <point x="794.335" y="1483.03" type="line"/>
      <point x="794.335" y="1500.0" type="line"/>
      <point x="1273.4099999999999" y="1500.0" type="line"/>
      <point x="1273.4099999999999" y="1483.03" type="line"/>
      <point x="1044.1" y="1450.07" type="line"/>
      <point x="665.075" y="776.455" type="line"/>
      <point x="658.5799999999999" y="776.455" type="line"/>
      <point x="245.70499999999998" y="48.405" type="line"/>
      <point x="487.65" y="16.485" type="line"/>
      <point x="487.65" y="0.0" type="line"/>
    </contour>
    <contour>
      <point x="29.96" y="1483.03" type="line"/>
      <point x="29.96" y="1500.0" type="line"/>
      <point x="516.28" y="1500.0" type="line"/>
      <point x="516.28" y="1483.03" type="line"/>
      <point x="320.565" y="1447.02" type="line"/>
      <point x="672.065" y="816.505" type="line"/>
      <point x="1105.78" y="46.94" type="line"/>
      <point x="1317.18" y="16.485" type="line"/>
      <point x="1317.18" y="0.0" type="line"/>
      <point x="824.6" y="0.0" type="line"/>
      <point x="824.6" y="16.485" type="line"/>
      <point x="1031.415" y="46.94" type="line"/>
      <point x="638.125" y="754.87" type="line"/>
      <point x="253.15" y="1445.515" type="line"/>
    </contour>
  </outline>
</glyph>
<glyph name="Y" format="2">
  <advance width="1270"/>
  <unicode hex="0059"/>
  <outline>
    <contour>
      <point x="-18.0" y="1483.03" type="line"/>
      <point x="-18.0" y="1500.0" type="line"/>
      <point x="454.9" y="1500.0" type="line"/>
      <point x="454.9" y="1483.03" type="line"/>
      <point x="247.925" y="1451.01" type="line"/>
      <point x="456.91499999999996" y="1065.28" type="line"/>
      <point x="659.67" y="668.03" type="line"/>
      <point x="867.265" y="1078.625" type="line"/>
      <point x="1056.88" y="1449.04" type="line"/>
      <point x="844.35" y="1483.03" type="line"/>
      <point x="844.35" y="1500.0" type="line"/>
      <point x="1294.815" y="1500.0" type="line"/>
      <point x="1294.815" y="1483.03" type="line"/>
      <point x="1089.215" y="1448.545" type="line"/>
      <point x="885.73" y="1066.675" type="line"/>
      <point x="675.125" y="643.535" type="line"/>
      <point x="675.125" y="50.98" type="line"/>
      <point x="873.35" y="17.98" type="line"/>
      <point x="873.35" y="0.0" type="line"/>
      <point x="417.91999999999996" y="0.0" type="line"/>
      <point x="417.91999999999996" y="17.98" type="line"/>
      <point x="616.63" y="50.98" type="line"/>
      <point x="617.64" y="633.635" type="line"/>
      <point x="410.40999999999997" y="1036.35" type="line"/>
      <point x="184.5" y="1447.03" type="line"/>
    </contour>
  </outline>
</glyph>
<glyph name="Z" format="2">
  <advance width="1091"/>
  <unicode hex="005A"/>
  <outline>
    <contour>
      <point x="52.82" y="0.0" type="line"/>
      <point x="42.2855" y="21.26275" type="line"/>
      <point x="943.335" y="1474.04" type="line"/>
      <point x="936.8399999999999" y="1486.0" type="line"/>
      <point x="217.47" y="1486.0" type="line"/>
      <point x="130.095" y="1146.35" type="line"/>
      <point x="119.125" y="1146.35" type="line"/>
      <point x="119.125" y="1500.0" type="line"/>
      <point x="1016.175" y="1500.0" type="line"/>
      <point x="1016.175" y="1475.0" type="line"/>
      <point x="124.63" y="38.94" type="line"/>
      <point x="126.13499999999999" y="25.465" type="line"/>
      <point x="924.66" y="25.465" type="line"/>
      <point x="1037.045" y="403.95" type="line"/>
      <point x="1057.7794354838709" y="403.95" type="line"/>
      <point x="1014.314435483871" y="0.0" type="line"/>
    </contour>
  </outline>
</glyph>
<glyph name="backslash" format="2">
  <advance width="713"/>
  <unicode hex="005C"/>
  <outline>
    <contour>
      <point x="15.765" y="1534.635" type="line"/>
      <point x="-2.2349999999999994" y="1521.625" type="line"/>
      <point x="719.9280967741935" y="-165.97525" type="line"/>
      <point x="740.075" y="-155.475" type="line"/>
    </contour>
  </outline>
</glyph>
<glyph name="bracketright" format="2">
  <advance width="555"/>
  <unicode hex="005D"/>
  <outline>
    <contour>
      <point x="21.525" y="-150.0" type="line"/>
      <point x="21.525" y="-136.0" type="line"/>
      <point x="387.575" y="-126.05" type="line"/>
      <point x="369.575" y="709.0" type="line"/>
      <point x="387.575" y="1475.05" type="line"/>
      <point x="21.525" y="1485.0" type="line"/>
      <point x="21.525" y="1500.0" type="line"/>
      <point x="417.05" y="1500.0" type="line"/>
      <point x="417.05" y="1497.0" type="line"/>
      <point x="415.05" y="1483.0" type="line"/>
      <point x="441.05" y="709.0" type="line"/>
      <point x="415.05" y="-133.0" type="line"/>
      <point x="419.05" y="-147.0" type="line"/>
      <point x="419.05" y="-150.0" type="line"/>
    </contour>
  </outline>
</glyph>
<glyph name="asciicircum" format="2">
  <advance width="859"/>
  <unicode hex="005E"/>
  <outline>
    <contour>
      <point x="72.66" y="1073.565" type="line"/>
      <point x="131.63" y="1145.615"/>
      <point x="397.655" y="1488.695"/>
      <point x="419.03" y="1520.07" type="qcurve"/>
      <point x="441.46500000000003" y="1492.09"/>
      <point x="732.925" y="1142.565"/>
      <point x="790.38" y="1069.565" type="qcurve"/>
      <point x="776.35" y="1059.04" type="line"/>
      <point x="713.47" y="1128.635"/>
      <point x="426.12" y="1401.04"/>
      <point x="402.625" y="1427.575" type="qcurve"/>
      <point x="379.545" y="1397.465"/>
      <point x="148.63" y="1137.12"/>
      <point x="87.195" y="1061.525" type="qcurve"/>
    </contour>
  </outline>
</glyph>
<glyph name="underscore" format="2">
  <advance width="1152"/>
  <unicode hex="005F"/>
  <outline>
    <contour>
      <point x="-12.0" y="-553.98" type="line"/>
      <point x="-12.0" y="-511.47" type="line"/>
      <point x="578.735" y="-507.77725" type="line"/>
      <point x="1163.995" y="-511.47" type="line"/>
      <point x="1163.995" y="-553.98" type="line"/>
      <point x="578.735" y="-553.565" type="line"/>
    </contour>
  </outline>
</glyph>
<glyph name="grave" format="2">
  <advance width="896"/>
  <unicode hex="0060"/>
  <outline>
    <contour>
      <point x="249.875" y="1206.5" type="qcurve" smooth="yes"/>
      <point x="249.875" y="1220.995"/>
      <point x="268.865" y="1243.47"/>
      <point x="285.845" y="1243.47" type="qcurve" smooth="yes"/>
      <point x="303.33" y="1243.47"/>
      <point x="329.835" y="1221.47"/>
      <point x="345.805" y="1206.49" type="qcurve" smooth="yes"/>
      <point x="581.315" y="991.365" type="line"/>
      <point x="574.305" y="982.355" type="line"/>
      <point x="306.815" y="1148.015" type="line" smooth="yes"/>
      <point x="287.815" y="1160.015"/>
      <point x="249.875" y="1188.015"/>
    </contour>
  </outline>
</glyph>
<glyph name="f" format="2">
  <advance width="556"/>
  <unicode hex="0066"/>
  <outline>
    <contour>
      <point x="52.145" y="0.0" type="line"/>
      <point x="52.145" y="16.98" type="line"/>
      <point x="215.635" y="41.97" type="line"/>
      <point x="218.625" y="477.0" type="line"/>
      <point x="221.625" y="870.06" type="line"/>
      <point x="33.125" y="884.04" type="line"/>
      <point x="33.125" y="901.04" type="line"/>
      <point x="221.625" y="900.06" type="line"/>
      <point x="215.12" y="1167.4" type="line" smooth="yes"/>
      <point x="210.625" y="1350.2"/>
      <point x="337.245" y="1510.0"/>
      <point x="439.48" y="1510.0" type="qcurve" smooth="yes"/>
      <point x="482.37" y="1510.0"/>
      <point x="567.14" y="1481.535"/>
      <point x="584.5550000000001" y="1453.575" type="qcurve" smooth="yes"/>
      <point x="598.98" y="1441.12" type="line"/>
      <point x="581.485" y="1412.665" type="line"/>
      <point x="569.525" y="1423.645" type="line" smooth="yes"/>
      <point x="543.635" y="1446.575"/>
      <point x="465.44" y="1481.475"/>
      <point x="420.04499999999996" y="1481.475" type="qcurve" smooth="yes"/>
      <point x="347.75" y="1481.475"/>
      <point x="269.1" y="1374.595"/>
      <point x="269.09000000000003" y="1211.705" type="qcurve" smooth="yes"/>
      <point x="269.07" y="900.06" type="line"/>
      <point x="505.70500000000004" y="899.555" type="line"/>
      <point x="505.70500000000004" y="875.555" type="line"/>
      <point x="269.565" y="874.06" type="line"/>
      <point x="269.585" y="476.505" type="line"/>
      <point x="274.575" y="41.97" type="line"/>
      <point x="459.43" y="16.98" type="line"/>
      <point x="459.43" y="0.0" type="line"/>
    </contour>
  </outline>
</glyph>
<glyph name="g" format="2">
  <advance width="915"/>
  <unicode hex="0067"/>
  <outline>
    <contour>
      <point x="39.879999999999995" y="-229.96" type="qcurve" smooth="yes"/>
      <point x="39.879999999999995" y="-152.96"/>
      <point x="190.89499999999998" y="16.99"/>
      <point x="331.575" y="64.505" type="qcurve"/>
      <point x="354.96" y="57.495" type="line"/>
      <point x="202.32" y="0.5350000000000001"/>
      <point x="88.65" y="-150.96"/>
      <point x="88.65" y="-232.96" type="qcurve" smooth="yes"/>
      <point x="88.65" y="-332.535"/>
      <point x="308.295" y="-461.95"/>
      <point x="490.08" y="-461.95" type="qcurve" smooth="yes"/>
      <point x="690.815" y="-461.95"/>
      <point x="881.5799999999999" y="-307.04"/>
      <point x="881.5799999999999" y="-212.0" type="qcurve" smooth="yes"/>
      <point x="881.5799999999999" y="-128.03"/>
      <point x="717.595" y="-28.98"/>
      <point x="498.99" y="9.02" type="qcurve" smooth="yes"/>
      <point x="290.82" y="46.03"/>
      <point x="134.4" y="116.595"/>
      <point x="134.4" y="174.565" type="qcurve" smooth="yes"/>
      <point x="134.4" y="216.99"/>
      <point x="207.64499999999998" y="278.465"/>
      <point x="299.405" y="308.495" type="qcurve"/>
      <point x="314.355" y="298.01" type="line"/>
      <point x="240.03" y="271.515"/>
      <point x="185.745" y="219.99"/>
      <point x="185.745" y="186.05" type="qcurve" smooth="yes"/>
      <point x="185.745" y="148.09"/>
      <point x="306.87" y="107.545"/>
      <point x="517.495" y="66.535" type="qcurve" smooth="yes"/>
      <point x="731.12" y="25.02"/>
      <point x="918.845" y="-86.505"/>
      <point x="918.845" y="-197.96" type="qcurve" smooth="yes"/>
      <point x="918.845" y="-314.02"/>
      <point x="701.1800000000001" y="-482.0"/>
      <point x="489.12" y="-482.0" type="qcurve" smooth="yes"/>
      <point x="291.505" y="-482.0"/>
      <point x="39.879999999999995" y="-338.505"/>
    </contour>
    <contour>
      <point x="103.035" y="583.97" type="qcurve" smooth="yes"/>
      <point x="103.035" y="729.425"/>
      <point x="297.305" y="944.94"/>
      <point x="461.66499999999996" y="944.94" type="qcurve" smooth="yes"/>
      <point x="626.52" y="944.94"/>
      <point x="828.75" y="766.425"/>
      <point x="828.75" y="612.97" type="qcurve" smooth="yes"/>
      <point x="830.75" y="469.575"/>
      <point x="628.035" y="267.08"/>
      <point x="464.16999999999996" y="267.08" type="qcurve" smooth="yes"/>
      <point x="300.78999999999996" y="267.08"/>
      <point x="103.035" y="456.575"/>
    </contour>
    <contour>
      <point x="165.48" y="592.02" type="qcurve" smooth="yes"/>
      <point x="165.48" y="471.625"/>
      <point x="326.20500000000004" y="281.575"/>
      <point x="471.685" y="281.575" type="qcurve" smooth="yes"/>
      <point x="600.215" y="281.575"/>
      <point x="767.325" y="482.575"/>
      <point x="767.325" y="618.97" type="qcurve" smooth="yes"/>
      <point x="767.325" y="761.425"/>
      <point x="603.105" y="929.425"/>
      <point x="457.655" y="929.425" type="qcurve" smooth="yes"/>
      <point x="317.255" y="929.425"/>
      <point x="165.48" y="728.87"/>
    </contour>
    <contour>
      <point x="677.255" y="878.31" type="line"/>
      <point x="668.8399999999999" y="889.27" type="line"/>
      <point x="941.655" y="920.0" type="line"/>
      <point x="941.655" y="881.0" type="line"/>
    </contour>
  </outline>
</glyph>
<glyph name="h" format="2">
  <advance width="990"/>
  <unicode hex="0068"/>
  <outline>
    <contour>
      <point x="72.63" y="0.0" type="line"/>
      <point x="72.63" y="14.485" type="line"/>
      <point x="216.12" y="41.98" type="line"/>
      <point x="218.625" y="458.385" type="line"/>
      <point x="209.615" y="1448.98" type="line"/>
      <point x="58.53" y="1483.0" type="line"/>
      <point x="58.53" y="1500.0" type="line"/>
      <point x="258.575" y="1498.02" type="line"/>
      <point x="269.575" y="1492.02" type="line"/>
      <point x="273.08" y="1467.03" type="line"/>
      <point x="268.08" y="724.935" type="line"/>
      <point x="316.305" y="804.28"/>
      <point x="533.275" y="939.475"/>
      <point x="666.35" y="939.475" type="qcurve" smooth="yes"/>
      <point x="831.55" y="939.475"/>
      <point x="989.89" y="798.755"/>
      <point x="989.89" y="677.55" type="qcurve" smooth="yes"/>
      <point x="989.89" y="619.065"/>
      <point x="988.88" y="523.04"/>
      <point x="988.88" y="508.675" type="qcurve" smooth="yes"/>
      <point x="990.88" y="41.98" type="line"/>
      <point x="1127.885" y="14.485" type="line"/>
      <point x="1127.885" y="0.0" type="line"/>
      <point x="788.53" y="0.0" type="line"/>
      <point x="788.53" y="14.485" type="line"/>
      <point x="930.435" y="41.98" type="line"/>
      <point x="935.9200000000001" y="484.675" type="line"/>
      <point x="935.9200000000001" y="644.61" type="line" smooth="yes"/>
      <point x="935.9200000000001" y="784.29"/>
      <point x="804.005" y="902.485"/>
      <point x="659.6949999999999" y="902.485" type="qcurve" smooth="yes"/>
      <point x="532.275" y="902.485"/>
      <point x="313.345" y="774.42"/>
      <point x="268.575" y="708.46" type="qcurve"/>
      <point x="270.09000000000003" y="474.575" type="line"/>
      <point x="275.08" y="41.98" type="line"/>
      <point x="436.41999999999996" y="13.98" type="line"/>
      <point x="436.41999999999996" y="0.0" type="line"/>
    </contour>
  </outline>
</glyph>
<glyph name="j" format="2">
  <advance width="428"/>
  <unicode hex="006A"/>
  <outline>
    <contour>
      <point x="42.235" y="-464.625" type="qcurve"/>
      <point x="42.235" y="-447.625" type="line"/>
      <point x="112.10499999999999" y="-449.11"/>
      <point x="197.775" y="-372.03"/>
      <point x="197.775" y="-294.555" type="qcurve" smooth="yes"/>
      <point x="196.785" y="461.95" type="line"/>
      <point x="193.775" y="870.515" type="line"/>
      <point x="29.8" y="897.515" type="line"/>
      <point x="29.8" y="910.99" type="line"/>
      <point x="224.22" y="926.99" type="line"/>
      <point x="233.19" y="926.99" type="line"/>
      <point x="251.745" y="894.545" type="line"/>
      <point x="249.26" y="462.94" type="line"/>
      <point x="256.24" y="-251.625" type="line" smooth="yes"/>
      <point x="257.24" y="-363.585"/>
      <point x="126.61" y="-466.605"/>
    </contour>
    <contour>
      <point x="175.4" y="1235.94" type="qcurve" smooth="yes"/>
      <point x="175.4" y="1254.91"/>
      <point x="200.865" y="1284.375"/>
      <point x="217.83499999999998" y="1284.375" type="qcurve" smooth="yes"/>
      <point x="235.805" y="1284.375"/>
      <point x="261.27" y="1258.91"/>
      <point x="261.27" y="1235.94" type="qcurve" smooth="yes"/>
      <point x="261.27" y="1216.97"/>
      <point x="234.805" y="1187.0"/>
      <point x="217.83499999999998" y="1187.0" type="qcurve" smooth="yes"/>
      <point x="197.865" y="1187.0"/>
      <point x="175.4" y="1215.465"/>
    </contour>
  </outline>
</glyph>
<glyph name="k" format="2">
  <advance width="915"/>
  <unicode hex="006B"/>
  <outline>
    <contour>
      <point x="72.63" y="0.0" type="line"/>
      <point x="72.63" y="14.485" type="line"/>
      <point x="216.12" y="42.485" type="line"/>
      <point x="218.12" y="473.535" type="line"/>
      <point x="209.615" y="1448.98" type="line"/>
      <point x="58.53" y="1483.0" type="line"/>
      <point x="58.53" y="1500.0" type="line"/>
      <point x="258.07" y="1498.515" type="line"/>
      <point x="269.07" y="1492.02" type="line"/>
      <point x="273.08" y="1467.03" type="line"/>
      <point x="269.585" y="518.575" type="line"/>
      <point x="275.585" y="41.99" type="line"/>
      <point x="436.925" y="14.99" type="line"/>
      <point x="436.925" y="0.0" type="line"/>
    </contour>
    <contour>
      <point x="254.555" y="411.98" type="line"/>
      <point x="253.58499999999998" y="435.505" type="line"/>
      <point x="714.615" y="876.95" type="line"/>
      <point x="579.995" y="906.0" type="line"/>
      <point x="579.995" y="920.0" type="line"/>
      <point x="886.64" y="920.0" type="line"/>
      <point x="886.64" y="908.0" type="line"/>
      <point x="740.515" y="873.95" type="line"/>
    </contour>
    <contour>
      <point x="424.845" y="581.96" type="line"/>
      <point x="463.765" y="628.07" type="line"/>
      <point x="828.435" y="40.455" type="line"/>
      <point x="948.6700000000001" y="17.465" type="line"/>
      <point x="948.6700000000001" y="0.0" type="line"/>
      <point x="663.15" y="0.0" type="line"/>
      <point x="662.15" y="15.485" type="line"/>
      <point x="765.505" y="38.0" type="line"/>
    </contour>
  </outline>
</glyph>
<glyph name="l" format="2">
  <advance width="486"/>
  <unicode hex="006C"/>
  <outline>
    <contour>
      <point x="68.71000000000001" y="0.0" type="line"/>
      <point x="68.71000000000001" y="16.7225" type="line"/>
      <point x="223.70499999999998" y="41.98" type="line"/>
      <point x="227.20999999999998" y="527.0" type="line"/>
      <point x="218.695" y="1449.99" type="line"/>
      <point x="59.69" y="1482.99" type="line"/>
      <point x="59.69" y="1500.0" type="line"/>
      <point x="266.655" y="1498.515" type="line"/>
      <point x="277.14" y="1491.525" type="line"/>
      <point x="281.15999999999997" y="1468.545" type="line"/>
      <point x="278.665" y="527.0" type="line"/>
      <point x="284.17" y="41.98" type="line"/>
      <point x="444.125" y="16.97" type="line"/>
      <point x="444.125" y="0.0" type="line"/>
    </contour>
  </outline>
</glyph>
<glyph name="q" format="2">
  <advance width="1074"/>
  <unicode hex="0071"/>
  <outline>
    <contour>
      <point x="57.8" y="457.0" type="qcurve" smooth="yes"/>
      <point x="57.8" y="702.545"/>
      <point x="331.225" y="941.94"/>
      <point x="521.9300000000001" y="941.94" type="qcurve" smooth="yes"/>
      <point x="627.49" y="941.94"/>
      <point x="799.2049999999999" y="874.465"/>
      <point x="838.46" y="835.505" type="qcurve"/>
      <point x="860.765" y="925.98" type="line"/>
      <point x="1066.84" y="915.445" type="line"/>
      <point x="1066.84" y="901.425" type="line"/>
      <point x="892.925" y="884.495" type="line"/>
      <point x="892.925" y="442.805" type="line"/>
      <point x="894.4100000000001" y="-420.0" type="line"/>
      <point x="1051.495" y="-448.0" type="line"/>
      <point x="1051.495" y="-460.0" type="line"/>
      <point x="649.475" y="-460.0" type="line"/>
      <point x="649.475" y="-448.0" type="line"/>
      <point x="831.9649999999999" y="-420.0" type="line"/>
      <point x="833.9649999999999" y="114.7" type="line"/>
      <point x="800.65" y="76.33500000000001"/>
      <point x="618.55" y="-15.455"/>
      <point x="495.07" y="-15.455" type="qcurve" smooth="yes"/>
      <point x="308.20500000000004" y="-15.455"/>
      <point x="57.8" y="215.435"/>
    </contour>
    <contour>
      <point x="117.235" y="460.05" type="qcurve" smooth="yes"/>
      <point x="117.235" y="225.0"/>
      <point x="317.74" y="3.05"/>
      <point x="497.11" y="3.05" type="qcurve" smooth="yes"/>
      <point x="613.035" y="3.05"/>
      <point x="795.115" y="88.78999999999999"/>
      <point x="832.975" y="139.62" type="qcurve"/>
      <point x="836.49" y="808.455" type="line"/>
      <point x="800.2149999999999" y="851.415"/>
      <point x="627.025" y="920.93"/>
      <point x="519.95" y="920.93" type="qcurve" smooth="yes"/>
      <point x="337.235" y="920.93"/>
      <point x="117.235" y="682.95"/>
    </contour>
  </outline>
</glyph>
<glyph name="w" format="2">
  <advance width="1397"/>
  <unicode hex="0077"/>
  <outline>
    <contour>
      <point x="-27.425" y="905.0" type="line"/>
      <point x="-27.425" y="920.0" type="line"/>
      <point x="345.75" y="920.0" type="line"/>
      <point x="345.75" y="905.0" type="line"/>
      <point x="192.915" y="883.0" type="line"/>
      <point x="320.335" y="490.455" type="line"/>
      <point x="471.11" y="51.745000000000005" type="line"/>
      <point x="621.895" y="430.97" type="line"/>
      <point x="711.02" y="665.0" type="line"/>
      <point x="721.0" y="647.0" type="line"/>
      <point x="636.855" y="423.0" type="line"/>
      <point x="475.03999999999996" y="-5.0" type="line"/>
      <point x="426.2" y="-5.0" type="line"/>
      <point x="269.375" y="468.555" type="line"/>
      <point x="128.985" y="882.505" type="line"/>
    </contour>
    <contour>
      <point x="482.02" y="905.0" type="line"/>
      <point x="482.02" y="920.0" type="line"/>
      <point x="833.985" y="920.0" type="line"/>
      <point x="833.985" y="905.0" type="line"/>
      <point x="672.765" y="884.505" type="line"/>
      <point x="806.55" y="472.23" type="line"/>
      <point x="944.9200000000001" y="49.28" type="line"/>
      <point x="1120.405" y="509.305" type="line"/>
      <point x="1247.28" y="875.495" type="line"/>
      <point x="1066.98" y="905.0" type="line"/>
      <point x="1066.98" y="920.0" type="line"/>
      <point x="1434.185" y="920.0" type="line"/>
      <point x="1434.185" y="905.0" type="line"/>
      <point x="1268.7350000000001" y="875.505" type="line"/>
      <point x="1135.375" y="501.84" type="line"/>
      <point x="947.89" y="-5.0" type="line"/>
      <point x="904.0" y="-5.0" type="line"/>
      <point x="758.5799999999999" y="452.33" type="line"/>
      <point x="611.3299999999999" y="884.0" type="line"/>
    </contour>
  </outline>
</glyph>
<glyph name="x" format="2">
  <advance width="957"/>
  <unicode hex="0078"/>
  <outline>
    <contour>
      <point x="-4.219999999999999" y="0.0" type="line"/>
      <point x="-4.219999999999999" y="16.465" type="line"/>
      <point x="169.22" y="45.425" type="line"/>
      <point x="457.625" y="491.545" type="line"/>
      <point x="462.58500000000004" y="491.545" type="line"/>
      <point x="709.635" y="873.03" type="line"/>
      <point x="541.66" y="906.01" type="line"/>
      <point x="541.66" y="920.0" type="line"/>
      <point x="902.015" y="920.0" type="line"/>
      <point x="901.52" y="906.01" type="line"/>
      <point x="732.5450000000001" y="875.02" type="line"/>
      <point x="475.555" y="476.565" type="line"/>
      <point x="470.1" y="476.565" type="line"/>
      <point x="191.635" y="46.425" type="line"/>
      <point x="366.125" y="16.465" type="line"/>
      <point x="366.125" y="0.0" type="line"/>
    </contour>
    <contour>
      <point x="14.305" y="906.01" type="line"/>
      <point x="14.305" y="920.0" type="line"/>
      <point x="421.32" y="920.0" type="line"/>
      <point x="421.32" y="906.01" type="line"/>
      <point x="248.03" y="883.515" type="line"/>
      <point x="484.555" y="511.09" type="line"/>
      <point x="781.4449999999999" y="42.475" type="line"/>
      <point x="959.855" y="16.465" type="line"/>
      <point x="959.36" y="0.0" type="line"/>
      <point x="534.345" y="0.0" type="line"/>
      <point x="534.345" y="16.465" type="line"/>
      <point x="713.11" y="39.455" type="line"/>
      <point x="450.13" y="459.485" type="line"/>
      <point x="180.19" y="882.0" type="line"/>
    </contour>
  </outline>
</glyph>
<glyph name="y" format="2">
  <advance width="1016"/>
  <unicode hex="0079"/>
  <outline>
    <contour>
      <point x="-19.060000000000002" y="906.0" type="line"/>
      <point x="-18.555" y="920.0" type="line"/>
      <point x="367.77" y="920.0" type="line"/>
      <point x="367.77" y="906.0" type="line"/>
      <point x="204.32999999999998" y="883.0" type="line"/>
      <point x="347.295" y="511.305" type="line"/>
      <point x="529.89" y="77.28" type="line"/>
      <point x="712.585" y="511.465" type="line"/>
      <point x="857.015" y="874.98" type="line"/>
      <point x="674.7049999999999" y="906.0" type="line"/>
      <point x="674.7049999999999" y="920.0" type="line"/>
      <point x="1043.9099999999999" y="920.0" type="line"/>
      <point x="1043.9099999999999" y="906.0" type="line"/>
      <point x="879.47" y="875.98" type="line"/>
      <point x="726.5450000000001" y="504.99" type="line"/>
      <point x="525.505" y="25.47" type="line" smooth="yes"/>
      <point x="426.21000000000004" y="-241.565"/>
      <point x="252.78" y="-472.96"/>
      <point x="169.01" y="-472.96" type="qcurve"/>
      <point x="38.065" y="-437.94" type="line"/>
      <point x="38.065" y="-424.96" type="line"/>
      <point x="132.11" y="-424.96" type="line" smooth="yes"/>
      <point x="238.82" y="-424.96"/>
      <point x="414.22" y="-202.495"/>
      <point x="485.46500000000003" y="-41.505" type="qcurve" smooth="yes"/>
      <point x="501.41499999999996" y="-2.9699999999999998" type="line"/>
      <point x="501.41499999999996" y="-2.9699999999999998" type="line"/>
      <point x="301.315" y="489.88" type="line"/>
      <point x="141.925" y="882.0" type="line"/>
    </contour>
  </outline>
</glyph>
<glyph name="z" format="2">
  <advance width="841"/>
  <unicode hex="007A"/>
  <outline>
    <contour>
      <point x="54.7" y="0.0" type="line"/>
      <point x="54.7" y="7.0" type="line"/>
      <point x="709.79" y="908.0" type="line"/>
      <point x="178.38" y="908.0" type="line"/>
      <point x="109.985" y="609.15" type="line"/>
      <point x="96.50999999999999" y="609.15" type="line"/>
      <point x="96.50999999999999" y="920.0" type="line"/>
      <point x="779.145" y="920.0" type="line"/>
      <point x="779.145" y="909.0" type="line"/>
      <point x="128.53" y="14.0" type="line"/>
      <point x="725.6" y="14.0" type="line"/>
      <point x="790.47" y="304.85" type="line"/>
      <point x="802.4200000000001" y="304.85" type="line"/>
      <point x="802.4200000000001" y="0.0" type="line"/>
    </contour>
  </outline>
</glyph>
<glyph name="bar" format="2">
  <advance width="453"/>
  <unicode hex="007C"/>
  <outline>
    <contour>
      <point x="244.245" y="-462.9" type="line"/>
      <point x="241.195" y="-29.9" type="line"/>
      <point x="237.235" y="278.1" type="line"/>
      <point x="240.245" y="858.1" type="line"/>
      <point x="243.69" y="1166.1" type="line"/>
      <point x="240.69" y="1577.1" type="line"/>
      <point x="205.72" y="1551.1" type="line"/>
      <point x="207.72" y="1188.1" type="line"/>
      <point x="212.67000000000002" y="880.1" type="line"/>
      <point x="211.68" y="300.1" type="line"/>
      <point x="206.72" y="-7.9" type="line"/>
      <point x="202.67000000000002" y="-488.9" type="line"/>
    </contour>
  </outline>
</glyph>
<glyph name="braceright" format="2">
  <advance width="574"/>
  <unicode hex="007D"/>
  <outline>
    <contour>
      <point x="29.15" y="-111.525" type="qcurve"/>
      <point x="29.15" y="-94.525" type="line"/>
      <point x="64.60000000000001" y="-97.57000000000001"/>
      <point x="146.785" y="-99.55000000000001"/>
      <point x="182.125" y="-99.55000000000001" type="qcurve" smooth="yes"/>
      <point x="307.5" y="-99.55000000000001"/>
      <point x="396.6" y="39.9"/>
      <point x="396.6" y="122.9" type="qcurve" smooth="yes"/>
      <point x="396.6" y="264.0"/>
      <point x="216.225" y="565.9"/>
      <point x="216.225" y="650.9" type="qcurve" smooth="yes"/>
      <point x="216.225" y="710.95"/>
      <point x="272.235" y="744.415"/>
      <point x="353.73" y="746.435" type="qcurve"/>
      <point x="289.265" y="761.92"/>
      <point x="214.225" y="820.9"/>
      <point x="214.225" y="905.9" type="qcurve" smooth="yes"/>
      <point x="214.225" y="971.9"/>
      <point x="303.095" y="1158.0"/>
      <point x="303.095" y="1270.1" type="qcurve" smooth="yes"/>
      <point x="303.095" y="1375.05"/>
      <point x="213.92374999999998" y="1486.7772499999999"/>
      <point x="102.24325" y="1486.7772499999999" type="qcurve" smooth="yes"/>
      <point x="84.04050000000001" y="1486.7772499999999"/>
      <point x="41.37275" y="1483.29225"/>
      <point x="25.15" y="1481.01" type="qcurve"/>
      <point x="25.15" y="1498.515" type="line"/>
      <point x="46.07" y="1502.505"/>
      <point x="101.95" y="1510.0"/>
      <point x="124.435" y="1510.0" type="qcurve" smooth="yes"/>
      <point x="237.8" y="1510.0"/>
      <point x="358.62" y="1371.05"/>
      <point x="358.62" y="1266.05" type="qcurve" smooth="yes"/>
      <point x="358.62" y="1170.1"/>
      <point x="245.51" y="969.405"/>
      <point x="245.51" y="889.405" type="qcurve" smooth="yes"/>
      <point x="245.51" y="819.405"/>
      <point x="352.6" y="761.475"/>
      <point x="438.6" y="763.95" type="qcurve" smooth="yes"/>
      <point x="536.25" y="762.465" type="line"/>
      <point x="536.25" y="736.05" type="line"/>
      <point x="281.5" y="721.405" type="line"/>
      <point x="254.5" y="699.9" type="line"/>
      <point x="254.5" y="564.9"/>
      <point x="450.125" y="244.95"/>
      <point x="451.125" y="141.95" type="qcurve" smooth="yes"/>
      <point x="452.125" y="14.95"/>
      <point x="300.6" y="-125.0"/>
      <point x="192.245" y="-125.0" type="qcurve"/>
      <point x="166.7" y="-125.0"/>
      <point x="61.15" y="-119.525"/>
    </contour>
  </outline>
</glyph>
<glyph name="brokenbar" format="2">
  <advance width="509"/>
  <unicode hex="00A6"/>
  <outline>
    <contour>
      <point x="274.0" y="733.0" type="line"/>
      <point x="265.0495" y="881.0" type="line"/>
      <point x="275.97475000000003" y="1189.0" type="line"/>
      <point x="292.9" y="1564.0" type="line"/>
      <point x="217.87725" y="1547.0" type="line"/>
      <point x="233.07475" y="1189.0" type="line"/>
      <point x="245.9505" y="881.0" type="line"/>
      <point x="243.0" y="730.0" type="line"/>
    </contour>
    <contour>
      <point x="296.12275" y="-475.0" type="line"/>
      <point x="268.0" y="-47.0" type="line"/>
      <point x="262.099" y="261.0" type="line"/>
      <point x="264.0495" y="433.0" type="line"/>
      <point x="233.0" y="423.0" type="line"/>
      <point x="241.77725" y="261.0" type="line"/>
      <point x="238.0" y="-47.0" type="line"/>
      <point x="215.1495" y="-522.0" type="line"/>
    </contour>
  </outline>
</glyph>
<glyph name="onesuperior" format="2">
  <advance width="643"/>
  <unicode hex="00B9"/>
  <outline>
    <contour>
      <point x="127.75" y="767.0" type="line"/>
      <point x="127.75" y="778.0" type="line"/>
      <point x="322.775" y="810.95" type="line"/>
      <point x="323.765" y="1159.0" type="line"/>
      <point x="323.26" y="1448.07" type="line"/>
      <point x="125.65" y="1414.92" type="line"/>
      <point x="125.65" y="1433.9" type="line"/>
      <point x="368.765" y="1509.0" type="line"/>
      <point x="376.71500000000003" y="1511.0" type="line"/>
      <point x="371.25" y="1159.0" type="line"/>
      <point x="371.745" y="810.95" type="line"/>
      <point x="559.265" y="778.0" type="line"/>
      <point x="559.265" y="767.0" type="line"/>
    </contour>
  </outline>
</glyph>
<glyph name="Thorn" format="2">
  <advance width="1126"/>
  <unicode hex="00DE"/>
  <outline>
    <contour>
      <point x="68.53" y="0.0" type="line"/>
      <point x="68.53" y="15.475" type="line"/>
      <point x="249.06" y="49.96" type="line"/>
      <point x="251.06" y="762.0" type="line"/>
      <point x="249.06" y="1447.03" type="line"/>
      <point x="67.53" y="1482.02" type="line"/>
      <point x="67.53" y="1500.0" type="line"/>
      <point x="491.025" y="1500.0" type="line"/>
      <point x="491.025" y="1482.515" type="line"/>
      <point x="307.01" y="1454.95" type="line"/>
      <point x="307.525" y="1299.505" type="line"/>
      <point x="619.49" y="1299.505" type="line" smooth="yes"/>
      <point x="812.03" y="1299.505"/>
      <point x="1044.6100000000001" y="1087.605"/>
      <point x="1044.6100000000001" y="888.14" type="qcurve" smooth="yes"/>
      <point x="1044.6100000000001" y="675.16"/>
      <point x="795.3" y="419.695"/>
      <point x="563.375" y="419.695" type="qcurve" smooth="yes"/>
      <point x="516.565" y="419.695"/>
      <point x="322.08" y="436.16"/>
      <point x="289.655" y="447.2" type="qcurve"/>
      <point x="292.14" y="469.19" type="line"/>
      <point x="333.555" y="452.695"/>
      <point x="533.06" y="438.705"/>
      <point x="571.96" y="438.705" type="qcurve" smooth="yes"/>
      <point x="781.11" y="438.705"/>
      <point x="978.69" y="664.385"/>
      <point x="978.69" y="889.06" type="qcurve" smooth="yes"/>
      <point x="978.69" y="1095.96"/>
      <point x="774.5550000000001" y="1272.435"/>
      <point x="599.9449999999999" y="1277.99" type="qcurve"/>
      <point x="306.02" y="1277.99" type="line"/>
      <point x="304.53499999999997" y="751.15" type="line"/>
      <point x="306.53499999999997" y="51.99" type="line"/>
      <point x="505.53999999999996" y="15.485" type="line"/>
      <point x="505.53999999999996" y="0.0" type="line"/>
    </contour>
  </outline>
</glyph>
<glyph name="eth" format="2">
  <advance width="993"/>
  <unicode hex="00F0"/>
  <outline>
    <contour>
      <point x="58.295" y="465.0" type="qcurve" smooth="yes"/>
      <point x="58.295" y="687.09"/>
      <point x="295.83" y="957.575"/>
      <point x="490.95" y="957.575" type="qcurve" smooth="yes"/>
      <point x="674.605" y="957.575"/>
      <point x="895.9200000000001" y="750.28"/>
      <point x="900.87" y="511.79" type="qcurve"/>
      <point x="874.525" y="509.77" type="line"/>
      <point x="861.615" y="774.675"/>
      <point x="633.26" y="945.585"/>
      <point x="491.425" y="945.585" type="qcurve" smooth="yes"/>
      <point x="330.65999999999997" y="945.585"/>
      <point x="121.265" y="715.1"/>
      <point x="121.265" y="479.1" type="qcurve" smooth="yes"/>
      <point x="121.265" y="230.605"/>
      <point x="328.75" y="-7.9399999999999995"/>
      <point x="489.515" y="-8.93" type="qcurve" smooth="yes"/>
      <point x="651.7850000000001" y="-9.92"/>
      <point x="870.525" y="206.9"/>
      <point x="867.495" y="463.245" type="qcurve" smooth="yes"/>
      <point x="863.96" y="868.345"/>
      <point x="634.76" y="1428.0"/>
      <point x="318.315" y="1528.475" type="qcurve"/>
      <point x="325.335" y="1546.0" type="line"/>
      <point x="650.6" y="1446.575"/>
      <point x="917.01" y="847.0"/>
      <point x="917.01" y="543.595" type="qcurve" smooth="yes"/>
      <point x="917.01" y="254.585"/>
      <point x="671.1700000000001" y="-21.435"/>
      <point x="486.54499999999996" y="-21.435" type="qcurve" smooth="yes"/>
      <point x="304.145" y="-21.435"/>
      <point x="58.295" y="241.0"/>
    </contour>
    <contour>
      <point x="371.33000000000004" y="1167.525" type="line"/>
      <point x="877.375" y="1487.525" type="line"/>
      <point x="891.86" y="1469.07" type="line"/>
      <point x="386.31" y="1149.07" type="line"/>
    </contour>
  </outline>
</glyph>
<glyph name="idotless" format="2">
  <advance width="479"/>
  <unicode hex="0131"/>
  <outline>
    <contour>
      <point x="73.59" y="0.0" type="line"/>
      <point x="73.59" y="16.98" type="line"/>
      <point x="223.625" y="41.98" type="line"/>
      <point x="226.12" y="472.05" type="line"/>
      <point x="221.595" y="872.0" type="line"/>
      <point x="57.64" y="897.02" type="line"/>
      <point x="57.64" y="910.495" type="line"/>
      <point x="252.07" y="926.99" type="line"/>
      <point x="261.53499999999997" y="926.99" type="line"/>
      <point x="279.585" y="896.525" type="line"/>
      <point x="276.585" y="472.05" type="line"/>
      <point x="282.585" y="41.98" type="line"/>
      <point x="441.51" y="16.98" type="line"/>
      <point x="441.51" y="0.0" type="line"/>
    </contour>
  </outline>
</glyph>
<glyph name="dong" format="2">
  <advance width="1028"/>
  <unicode hex="20AB"/>
  <outline>
    <contour>
      <point x="54.265" y="458.05" type="qcurve" smooth="yes"/>
      <point x="54.265" y="703.04"/>
      <point x="316.08500000000004" y="941.94"/>
      <point x="510.175" y="941.94" type="qcurve" smooth="yes"/>
      <point x="601.815" y="941.94"/>
      <point x="774.9649999999999" y="869.495"/>
      <point x="811.745" y="829.535" type="qcurve"/>
      <point x="811.6949999999999" y="1450.98" type="line"/>
      <point x="614.78" y="1483.0" type="line"/>
      <point x="614.78" y="1500.0" type="line"/>
      <point x="852.725" y="1503.0" type="line"/>
      <point x="865.1700000000001" y="1497.0" type="line"/>
      <point x="869.665" y="1471.01" type="line"/>
      <point x="866.675" y="526.0" type="line"/>
      <point x="868.16" y="41.98" type="line"/>
      <point x="1011.49" y="14.98" type="line"/>
      <point x="1011.49" y="0.0" type="line"/>
      <point x="815.22" y="0.0" type="line"/>
      <point x="809.2" y="10.495" type="line"/>
      <point x="808.22" y="99.345" type="line"/>
      <point x="773.44" y="67.425"/>
      <point x="590.42" y="-15.455"/>
      <point x="476.89" y="-15.455" type="qcurve" smooth="yes"/>
      <point x="294.57" y="-15.455"/>
      <point x="54.265" y="216.425"/>
    </contour>
    <contour>
      <point x="117.73" y="456.495" type="qcurve" smooth="yes"/>
      <point x="117.73" y="226.0"/>
      <point x="308.145" y="3.05"/>
      <point x="480.455" y="3.05" type="qcurve" smooth="yes"/>
      <point x="593.835" y="3.05"/>
      <point x="770.39" y="79.87"/>
      <point x="807.725" y="117.275" type="qcurve"/>
      <point x="810.23" y="519.9" type="line"/>
      <point x="811.24" y="805.0" type="line"/>
      <point x="776.46" y="846.97"/>
      <point x="598.4300000000001" y="921.425"/>
      <point x="504.28499999999997" y="921.425" type="qcurve" smooth="yes"/>
      <point x="326.125" y="921.425"/>
      <point x="117.73" y="683.95"/>
    </contour>
    <contour>
      <point x="122.11500000000001" y="-147.8" type="line"/>
      <point x="122.11500000000001" y="-121.255" type="line"/>
      <point x="536.76" y="-121.255" type="line"/>
      <point x="965.365" y="-121.255" type="line"/>
      <point x="965.365" y="-147.8" type="line"/>
      <point x="536.77" y="-147.8" type="line"/>
    </contour>
    <contour>
      <point x="380.2" y="1235.515" type="line"/>
      <point x="381.2" y="1257.05" type="line"/>
      <point x="841.25" y="1257.05" type="line"/>
      <point x="996.75" y="1257.05" type="line"/>
      <point x="996.75" y="1235.515" type="line"/>
      <point x="840.25" y="1235.515" type="line"/>
    </contour>
  </outline>
</glyph>
<glyph name="lessequal" format="2">
  <advance width="849"/>
  <unicode hex="2264"/>
  <outline>
    <contour>
      <point x="81.6" y="-6.699999999999999" type="line"/>
      <point x="81.6" y="43.2" type="line"/>
      <point x="778.05" y="43.2" type="line"/>
      <point x="778.05" y="-6.699999999999999" type="line"/>
    </contour>
    <contour>
      <point x="102.6" y="582.0" type="qcurve"/>
      <point x="134.135" y="618.565"/>
      <point x="625.03" y="939.91"/>
      <point x="673.4449999999999" y="974.405" type="qcurve" smooth="yes"/>
      <point x="705.0" y="997.98"/>
      <point x="711.9300000000001" y="962.12"/>
      <point x="687.95" y="945.585" type="qcurve" smooth="yes"/>
      <point x="552.0699999999999" y="849.385"/>
      <point x="202.83499999999998" y="610.545"/>
      <point x="177.35" y="588.0" type="qcurve"/>
      <point x="197.35" y="572.475"/>
      <point x="581.04" y="346.13"/>
      <point x="717.505" y="254.94" type="qcurve" smooth="yes"/>
      <point x="744.485" y="236.91"/>
      <point x="736.98" y="202.505"/>
      <point x="705.95" y="222.575" type="qcurve" smooth="yes"/>
      <point x="596.0799999999999" y="290.17"/>
      <point x="153.6" y="541.0"/>
    </contour>
  </outline>
</glyph>
<glyph name="fi" format="2">
  <advance width="1099"/>
  <unicode hex="FB01"/>
  <outline>
    <contour>
      <point x="52.145" y="0.0" type="line"/>
      <point x="52.145" y="16.98" type="line"/>
      <point x="221.695" y="41.97" type="line"/>
      <point x="224.685" y="477.0" type="line"/>
      <point x="227.685" y="871.575" type="line"/>
      <point x="33.125" y="884.04" type="line"/>
      <point x="33.125" y="901.04" type="line"/>
      <point x="227.685" y="901.575" type="line"/>
      <point x="221.18" y="1167.4" type="line" smooth="yes"/>
      <point x="216.685" y="1350.2"/>
      <point x="347.345" y="1510.0"/>
      <point x="460.69" y="1510.0" type="qcurve" smooth="yes"/>
      <point x="517.215" y="1510.0"/>
      <point x="609.56" y="1476.485"/>
      <point x="638.085" y="1444.99" type="qcurve" smooth="yes"/>
      <point x="653.52" y="1432.03" type="line"/>
      <point x="636.025" y="1405.595" type="line"/>
      <point x="622.55" y="1417.08" type="line" smooth="yes"/>
      <point x="590.6" y="1444.05"/>
      <point x="497.255" y="1481.475"/>
      <point x="438.225" y="1481.475" type="qcurve" smooth="yes"/>
      <point x="360.88" y="1481.475"/>
      <point x="273.645" y="1374.595"/>
      <point x="274.14" y="1211.705" type="qcurve" smooth="yes"/>
      <point x="275.13" y="903.06" type="line"/>
      <point x="872.345" y="923.96" type="line"/>
      <point x="881.81" y="923.96" type="line"/>
      <point x="899.86" y="893.495" type="line"/>
      <point x="896.86" y="472.05" type="line"/>
      <point x="902.86" y="41.98" type="line"/>
      <point x="1061.785" y="16.98" type="line"/>
      <point x="1061.785" y="0.0" type="line"/>
      <point x="693.865" y="0.0" type="line"/>
      <point x="693.865" y="16.98" type="line"/>
      <point x="843.9" y="41.98" type="line"/>
      <point x="846.395" y="472.05" type="line"/>
      <point x="841.87" y="872.505" type="line"/>
      <point x="824.355" y="888.97" type="line"/>
      <point x="275.625" y="877.06" type="line"/>
      <point x="275.645" y="476.505" type="line"/>
      <point x="280.635" y="41.97" type="line"/>
      <point x="465.49" y="16.98" type="line"/>
      <point x="465.49" y="0.0" type="line"/>
    </contour>
    <contour>
      <point x="833.9300000000001" y="1235.94" type="qcurve" smooth="yes"/>
      <point x="833.9300000000001" y="1256.91"/>
      <point x="858.395" y="1284.375"/>
      <point x="876.365" y="1284.375" type="qcurve" smooth="yes"/>
      <point x="894.335" y="1284.375"/>
      <point x="919.8" y="1258.91"/>
      <point x="919.8" y="1235.94" type="qcurve" smooth="yes"/>
      <point x="919.8" y="1214.97"/>
      <point x="892.335" y="1187.0"/>
      <point x="876.365" y="1187.0" type="qcurve" smooth="yes"/>
      <point x="856.395" y="1187.0"/>
      <point x="833.9300000000001" y="1212.465"/>
    </contour>
  </outline>
</glyph>
<glyph name="caroncomb.case" format="2">
  <advance width="896"/>
  <outline>
    <contour>
      <point x="444.96" y="1563.475" type="qcurve" smooth="yes"/>
      <point x="422.96" y="1563.475"/>
      <point x="373.96" y="1604.525"/>
      <point x="331.96" y="1641.525" type="qcurve" smooth="yes"/>
      <point x="193.5" y="1769.63" type="line"/>
      <point x="207.965" y="1781.105" type="line"/>
      <point x="444.96" y="1623.505" type="line"/>
      <point x="685.995" y="1781.105" type="line"/>
      <point x="698.46" y="1770.63" type="line"/>
      <point x="557.96" y="1641.525" type="line" smooth="yes"/>
      <point x="508.475" y="1595.01"/>
      <point x="466.96" y="1563.475"/>
    </contour>
  </outline>
</glyph>
<glyph name="eight.lf" format="2">
  <advance width="905"/>
  <outline>
    <contour>
      <point x="54.105" y="353.295" type="qcurve" smooth="yes"/>
      <point x="54.105" y="501.295"/>
      <point x="253.91" y="755.415"/>
      <point x="413.39" y="833.95" type="qcurve"/>
      <point x="425.33000000000004" y="826.455" type="line"/>
      <point x="271.345" y="748.455"/>
      <point x="98.905" y="494.83"/>
      <point x="98.905" y="347.245" type="qcurve" smooth="yes"/>
      <point x="98.905" y="196.85"/>
      <point x="293.69" y="-5.565"/>
      <point x="457.09000000000003" y="-5.565" type="qcurve" smooth="yes"/>
      <point x="620.49" y="-5.565"/>
      <point x="812.6700000000001" y="214.79"/>
      <point x="812.6700000000001" y="371.305" type="qcurve" smooth="yes"/>
      <point x="812.6700000000001" y="522.275"/>
      <point x="590.3199999999999" y="721.515"/>
      <point x="444.58500000000004" y="797.03" type="qcurve" smooth="yes"/>
      <point x="304.265" y="871.585"/>
      <point x="128.37" y="1064.17"/>
      <point x="128.37" y="1214.665" type="qcurve" smooth="yes"/>
      <point x="128.37" y="1358.695"/>
      <point x="317.21500000000003" y="1525.95"/>
      <point x="456.675" y="1525.95" type="qcurve" smooth="yes"/>
      <point x="606.56" y="1525.95"/>
      <point x="785.4649999999999" y="1362.595"/>
      <point x="785.4649999999999" y="1219.15" type="qcurve" smooth="yes"/>
      <point x="785.4649999999999" y="1082.18"/>
      <point x="618.965" y="884.15"/>
      <point x="488.83" y="819.585" type="qcurve"/>
      <point x="480.85" y="827.565" type="line"/>
      <point x="619.835" y="903.02"/>
      <point x="752.565" y="1095.07"/>
      <point x="752.565" y="1220.07" type="qcurve" smooth="yes"/>
      <point x="752.565" y="1350.12"/>
      <point x="598.105" y="1509.95"/>
      <point x="455.16999999999996" y="1509.95" type="qcurve" smooth="yes"/>
      <point x="324.68" y="1509.95"/>
      <point x="174.735" y="1350.27"/>
      <point x="174.735" y="1221.21" type="qcurve" smooth="yes"/>
      <point x="174.735" y="1094.17"/>
      <point x="347.155" y="918.1"/>
      <point x="488.455" y="844.05" type="qcurve" smooth="yes"/>
      <point x="637.27" y="764.96"/>
      <point x="865.54" y="545.295"/>
      <point x="865.54" y="376.265" type="qcurve" smooth="yes"/>
      <point x="865.54" y="205.84"/>
      <point x="633.4" y="-20.555"/>
      <point x="455.575" y="-20.555" type="qcurve" smooth="yes"/>
      <point x="281.28499999999997" y="-20.555"/>
      <point x="54.105" y="185.325"/>
    </contour>
  </outline>
</glyph>
<glyph name="engtail" format="2">
  <advance width="629"/>
  <outline>
    <contour>
      <point x="470.555" y="76.9" type="line"/>
      <point x="523.0" y="76.9" type="line"/>
      <point x="523.0" y="-160.75" type="line" smooth="yes"/>
      <point x="523.0" y="-268.845"/>
      <point x="419.765" y="-368.575"/>
      <point x="341.54" y="-368.575" type="qcurve" smooth="yes"/>
      <point x="271.68" y="-368.575"/>
      <point x="168.06" y="-305.725"/>
      <point x="149.625" y="-279.765" type="qcurve"/>
      <point x="158.13" y="-267.3" type="line"/>
      <point x="176.595" y="-290.775"/>
      <point x="270.8" y="-348.11"/>
      <point x="331.055" y="-348.11" type="qcurve" smooth="yes"/>
      <point x="389.3" y="-348.11"/>
      <point x="461.03" y="-273.78499999999997"/>
      <point x="461.03" y="-194.035" type="qcurve" smooth="yes"/>
      <point x="461.03" y="-131.7"/>
      <point x="461.03" y="42.9"/>
      <point x="461.03" y="42.9" type="qcurve"/>
    </contour>
  </outline>
</glyph>
<glyph name="five.lf" format="2">
  <advance width="838"/>
  <outline>
    <contour>
      <point x="-11.684999999999999" y="142.64" type="qcurve"/>
      <point x="2.285" y="155.075" type="line"/>
      <point x="48.67" y="92.075"/>
      <point x="245.185" y="-8.465"/>
      <point x="394.89" y="-8.465" type="qcurve" smooth="yes"/>
      <point x="551.125" y="-8.465"/>
      <point x="740.99" y="252.395"/>
      <point x="740.99" y="453.83" type="qcurve" smooth="yes"/>
      <point x="740.99" y="666.84"/>
      <point x="508.86" y="875.78"/>
      <point x="234.365" y="871.82" type="qcurve" smooth="yes"/>
      <point x="114.49000000000001" y="869.84" type="line"/>
      <point x="105.56" y="879.72" type="line"/>
      <point x="142.44" y="1475.0" type="line"/>
      <point x="164.37" y="1500.0" type="line"/>
      <point x="722.765" y="1500.0" type="line"/>
      <point x="711.815" y="1426.485" type="line"/>
      <point x="167.89499999999998" y="1426.485" type="line"/>
      <point x="158.925" y="1415.485" type="line"/>
      <point x="125.53999999999999" y="892.315" type="line"/>
      <point x="237.435" y="908.345" type="line"/>
      <point x="520.84" y="926.225"/>
      <point x="804.89" y="693.85"/>
      <point x="804.89" y="454.345" type="qcurve" smooth="yes"/>
      <point x="804.89" y="226.415"/>
      <point x="558.64" y="-24.475"/>
      <point x="397.91999999999996" y="-24.475" type="qcurve" smooth="yes"/>
      <point x="236.145" y="-24.475"/>
      <point x="32.195" y="79.63"/>
    </contour>
  </outline>
</glyph>
<glyph name="one.lf" format="2">
  <advance width="591"/>
  <outline>
    <contour>
      <point x="32.485" y="0.0" type="line"/>
      <point x="32.485" y="18.455" type="line"/>
      <point x="281.635" y="48.475" type="line"/>
      <point x="281.635" y="754.0" type="line"/>
      <point x="277.635" y="1431.07" type="line"/>
      <point x="10.485" y="1398.0" type="line"/>
      <point x="10.485" y="1414.0" type="line"/>
      <point x="334.565" y="1517.0" type="line"/>
      <point x="336.565" y="1515.0" type="line"/>
      <point x="331.565" y="753.0" type="line"/>
      <point x="331.565" y="48.475" type="line"/>
      <point x="578.715" y="18.455" type="line"/>
      <point x="578.715" y="0.0" type="line"/>
    </contour>
  </outline>
</glyph>
<glyph name="seven.tab" format="2">
  <advance width="771"/>
  <outline>
    <contour>
      <point x="19.93" y="1227.09" type="line"/>
      <point x="32.91" y="1500.0" type="line"/>
      <point x="799.435" y="1500.0" type="line"/>
      <point x="799.435" y="1446.585" type="line"/>
      <point x="496.88" y="723.97" type="line"/>
      <point x="195.595" y="-23.95" type="line"/>
      <point x="165.385" y="-23.95" type="line"/>
      <point x="165.385" y="-12.95" type="line"/>
      <point x="478.91999999999996" y="733.94" type="line"/>
      <point x="760.565" y="1421.02" type="line"/>
      <point x="757.04" y="1429.515" type="line"/>
      <point x="79.9" y="1429.515" type="line"/>
      <point x="31.405" y="1227.09" type="line"/>
    </contour>
  </outline>
</glyph>
<glyph name="three.lf" format="2">
  <advance width="834"/>
  <outline>
    <contour>
      <point x="-7.605" y="215.535" type="qcurve"/>
      <point x="11.92" y="226.455" type="line"/>
      <point x="43.63" y="145.445"/>
      <point x="255.69" y="-0.46499999999999986"/>
      <point x="399.685" y="-0.46499999999999986" type="qcurve" smooth="yes"/>
      <point x="543.81" y="-0.46499999999999986"/>
      <point x="727.525" y="228.07"/>
      <point x="727.525" y="416.16" type="qcurve" smooth="yes"/>
      <point x="727.525" y="601.1"/>
      <point x="538.75" y="815.485"/>
      <point x="348.845" y="814.0" type="qcurve" smooth="yes"/>
      <point x="240.415" y="813.01" type="line"/>
      <point x="237.94" y="834.02" type="line"/>
      <point x="351.28999999999996" y="839.01" type="line" smooth="yes"/>
      <point x="507.225" y="846.515"/>
      <point x="672.22" y="1049.05"/>
      <point x="672.22" y="1199.05" type="qcurve" smooth="yes"/>
      <point x="672.22" y="1333.05"/>
      <point x="522.175" y="1483.91"/>
      <point x="402.1" y="1483.91" type="qcurve" smooth="yes"/>
      <point x="272.64" y="1483.91"/>
      <point x="93.46000000000001" y="1368.545"/>
      <point x="68.69" y="1306.485" type="qcurve"/>
      <point x="49.66" y="1318.465" type="line"/>
      <point x="85.895" y="1400.1"/>
      <point x="280.225" y="1517.495"/>
      <point x="406.19" y="1517.495" type="qcurve" smooth="yes"/>
      <point x="541.6800000000001" y="1517.495"/>
      <point x="731.14" y="1364.05"/>
      <point x="731.14" y="1213.465" type="qcurve" smooth="yes"/>
      <point x="731.14" y="1073.13"/>
      <point x="563.72" y="867.08"/>
      <point x="425.08" y="834.535" type="qcurve"/>
      <point x="425.575" y="829.535" type="line"/>
      <point x="558.72" y="817.495"/>
      <point x="788.94" y="614.15"/>
      <point x="788.94" y="421.585" type="qcurve" smooth="yes"/>
      <point x="788.94" y="215.465"/>
      <point x="559.345" y="-24.515"/>
      <point x="398.28" y="-24.515" type="qcurve" smooth="yes"/>
      <point x="240.145" y="-24.515"/>
      <point x="16.115000000000002" y="141.485"/>
    </contour>
  </outline>
</glyph>
<glyph name="tildecomb.case" format="2">
  <advance width="896"/>
  <outline>
    <contour>
      <point x="195.0" y="1662.0" type="line"/>
      <point x="212.0" y="1687.0"/>
      <point x="291.0" y="1747.475"/>
      <point x="333.0" y="1747.475" type="qcurve" smooth="yes"/>
      <point x="378.0" y="1747.475"/>
      <point x="430.0" y="1722.0"/>
      <point x="456.0" y="1705.0" type="qcurve" smooth="yes"/>
      <point x="479.0" y="1690.0"/>
      <point x="538.0" y="1658.0"/>
      <point x="564.0" y="1658.0" type="qcurve" smooth="yes"/>
      <point x="596.0" y="1658.0"/>
      <point x="652.94" y="1696.94"/>
      <point x="665.94" y="1715.445" type="qcurve"/>
      <point x="676.93" y="1705.475" type="line"/>
      <point x="656.96" y="1668.0"/>
      <point x="594.0" y="1610.525"/>
      <point x="551.0" y="1610.525" type="qcurve" smooth="yes"/>
      <point x="513.0" y="1610.525"/>
      <point x="442.0" y="1644.0"/>
      <point x="418.0" y="1657.0" type="qcurve" smooth="yes"/>
      <point x="394.0" y="1670.0"/>
      <point x="325.0" y="1707.02"/>
      <point x="299.03" y="1707.02" type="qcurve" smooth="yes"/>
      <point x="269.0" y="1707.02"/>
      <point x="219.99" y="1669.525"/>
      <point x="208.485" y="1653.03" type="qcurve"/>
    </contour>
  </outline>
</glyph>
<glyph name="two.lf" format="2">
  <advance width="806"/>
  <outline>
    <contour>
      <point x="46.99" y="0.0" type="line"/>
      <point x="46.99" y="71.525" type="line" smooth="yes"/>
      <point x="55.405" y="198.02"/>
      <point x="196.865" y="476.355"/>
      <point x="367.7" y="617.0" type="qcurve" smooth="yes"/>
      <point x="521.525" y="740.05"/>
      <point x="688.4100000000001" y="999.11"/>
      <point x="687.905" y="1175.625" type="qcurve" smooth="yes"/>
      <point x="687.4" y="1332.605"/>
      <point x="540.79" y="1495.455"/>
      <point x="395.5" y="1495.455" type="qcurve" smooth="yes"/>
      <point x="275.0" y="1495.455"/>
      <point x="127.185" y="1404.565"/>
      <point x="98.385" y="1364.09" type="qcurve"/>
      <point x="80.84" y="1375.04" type="line"/>
      <point x="109.14500000000001" y="1422.06"/>
      <point x="267.585" y="1521.495"/>
      <point x="398.025" y="1521.99" type="qcurve" smooth="yes"/>
      <point x="568.8299999999999" y="1521.495"/>
      <point x="746.29" y="1352.09"/>
      <point x="746.7950000000001" y="1183.635" type="qcurve" smooth="yes"/>
      <point x="747.3" y="995.06"/>
      <point x="556.9300000000001" y="737.05"/>
      <point x="379.20500000000004" y="599.525" type="qcurve" smooth="yes"/>
      <point x="215.26" y="465.345"/>
      <point x="78.88" y="190.515"/>
      <point x="72.445" y="74.525" type="qcurve"/>
      <point x="72.445" y="71.01" type="line"/>
      <point x="793.0899999999999" y="71.01" type="line"/>
      <point x="793.0899999999999" y="0.0" type="line"/>
    </contour>
  </outline>
</glyph>
